<?xml version="1.0" encoding="UTF-8" standalone="no"?>
<svg
   width="8.9999695"
   height="16"
   viewBox="0 0 8.9999695 16"
   fill="none"
   version="1.1"
   id="svg1324"
   sodipodi:docname="Icons.svg"
   xmlns:inkscape="http://www.inkscape.org/namespaces/inkscape"
   xmlns:sodipodi="http://sodipodi.sourceforge.net/DTD/sodipodi-0.dtd"
   xmlns="http://www.w3.org/2000/svg"
   xmlns:svg="http://www.w3.org/2000/svg">
  <sodipodi:namedview
     id="namedview1326"
     pagecolor="#ffffff"
     bordercolor="#666666"
     borderopacity="1.0"
     inkscape:showpageshadow="2"
     inkscape:pageopacity="0.0"
     inkscape:pagecheckerboard="0"
     inkscape:deskcolor="#d1d1d1"
     showgrid="false" />
  <g
     clip-path="url(#clip0_756_23769)"
     id="g508"
     transform="translate(-296,-484)">
    <path
       d="m 3,8 7.8906,5.2604 c 0.6718,0.4479 1.547,0.4479 2.2188,0 L 21,8 M 5,19 h 14 c 1.1046,0 2,-0.8954 2,-2 V 7 C 21,5.89543 20.1046,5 19,5 H 5 C 3.89543,5 3,5.89543 3,7 v 10 c 0,1.1046 0.89543,2 2,2 z"
       stroke="#111827"
       stroke-width="2"
       stroke-linecap="round"
       stroke-linejoin="round"
       id="path2" />
    <path
       d="m 63,17 h 5 L 66.5951,15.5951 C 66.2141,15.2141 66,14.6973 66,14.1585 V 11 C 66,8.38757 64.3304,6.16509 62,5.34142 V 5 C 62,3.89543 61.1046,3 60,3 58.8954,3 58,3.89543 58,5 V 5.34142 C 55.6696,6.16509 54,8.38757 54,11 v 3.1585 c 0,0.5388 -0.2141,1.0556 -0.5951,1.4366 L 52,17 h 5 m 6,0 v 1 c 0,1.6569 -1.3431,3 -3,3 -1.6569,0 -3,-1.3431 -3,-3 v -1 m 6,0 h -6"
       stroke="#111827"
       stroke-width="2"
       stroke-linecap="round"
       stroke-linejoin="round"
       id="path4" />
    <path
       d="m 99,12 2,-2 m 0,0 7,-7 7,7 m -14,0 v 10 c 0,0.5523 0.448,1 1,1 h 3 m 10,-11 2,2 m -2,-2 v 10 c 0,0.5523 -0.448,1 -1,1 h -3 m -6,0 c 0.552,0 1,-0.4477 1,-1 v -4 c 0,-0.5523 0.448,-1 1,-1 h 2 c 0.552,0 1,0.4477 1,1 v 4 c 0,0.5523 0.448,1 1,1 m -6,0 h 6"
       stroke="#111827"
       stroke-width="2"
       stroke-linecap="round"
       stroke-linejoin="round"
       id="path6" />
    <path
       d="M 165,13.2554 C 162.221,14.3805 159.183,15 156,15 c -3.183,0 -6.221,-0.6195 -9,-1.7446 M 160,6 V 4 c 0,-1.10457 -0.895,-2 -2,-2 h -4 c -1.105,0 -2,0.89543 -2,2 v 2 m 4,6 h 0.01 M 149,20 h 14 c 1.105,0 2,-0.8954 2,-2 V 8 c 0,-1.10457 -0.895,-2 -2,-2 h -14 c -1.105,0 -2,0.89543 -2,2 v 10 c 0,1.1046 0.895,2 2,2 z"
       stroke="#111827"
       stroke-width="2"
       stroke-linecap="round"
       stroke-linejoin="round"
       id="path8" />
    <path
       d="m 201,12 2,2 4,-4 m 5.618,-4.01566 c -0.205,0.01038 -0.411,0.01563 -0.618,0.01563 -3.073,0 -5.877,-1.15544 -8,-3.05563 -2.123,1.90012 -4.927,3.05551 -8,3.05551 -0.207,0 -0.413,-0.00525 -0.618,-0.01563 -0.249,0.96361 -0.382,1.9742 -0.382,3.01579 0,5.59149 3.824,10.28979 9,11.62199 5.176,-1.3322 9,-6.0305 9,-11.62199 0,-1.04154 -0.133,-2.0521 -0.382,-3.01567 z"
       stroke="#111827"
       stroke-width="2"
       stroke-linecap="round"
       stroke-linejoin="round"
       id="path10" />
    <path
       d="m 260.618,5.98434 c -0.205,0.01038 -0.411,0.01563 -0.618,0.01563 -3.073,0 -5.877,-1.15544 -8,-3.05563 -2.123,1.90012 -4.927,3.05551 -8,3.05551 -0.207,0 -0.413,-0.00525 -0.618,-0.01563 -0.249,0.96361 -0.382,1.9742 -0.382,3.01579 0,5.59149 3.824,10.28979 9,11.62199 5.176,-1.3322 9,-6.0305 9,-11.62199 0,-1.04154 -0.133,-2.0521 -0.382,-3.01567 z"
       stroke="#111827"
       stroke-width="2"
       stroke-linecap="round"
       stroke-linejoin="round"
       id="path12" />
    <path
       d="m 252,9 v 2 m 0,4 h 0.01"
       stroke="#111827"
       stroke-width="2"
       stroke-linecap="round"
       stroke-linejoin="round"
       id="path14" />
    <path
       d="m 298.325,4.31731 c 0.426,-1.75641 2.924,-1.75641 3.35,0 0.276,1.13462 1.576,1.67307 2.573,1.06554 1.543,-0.94046 3.31,0.82585 2.369,2.36933 -0.607,0.99707 -0.069,2.29702 1.066,2.57242 1.756,0.4264 1.756,2.9244 0,3.3508 -1.135,0.2754 -1.673,1.5753 -1.066,2.5724 0.941,1.5435 -0.826,3.3098 -2.369,2.3694 -0.997,-0.6076 -2.297,-0.0691 -2.573,1.0655 -0.426,1.7564 -2.924,1.7564 -3.35,0 -0.276,-1.1346 -1.576,-1.6731 -2.573,-1.0655 -1.543,0.9404 -3.31,-0.8259 -2.369,-2.3694 0.607,-0.9971 0.069,-2.297 -1.066,-2.5724 -1.756,-0.4264 -1.756,-2.9244 0,-3.3508 1.135,-0.2754 1.673,-1.57534 1.066,-2.57242 -0.941,-1.54348 0.826,-3.30979 2.369,-2.36933 0.997,0.60752 2.297,0.06908 2.573,-1.06554 z"
       stroke="#111827"
       stroke-width="2"
       stroke-linecap="round"
       stroke-linejoin="round"
       id="path16" />
    <path
       d="m 303,12 c 0,1.6569 -1.343,3 -3,3 -1.657,0 -3,-1.3431 -3,-3 0,-1.6569 1.343,-3 3,-3 1.657,0 3,1.3431 3,3 z"
       stroke="#111827"
       stroke-width="2"
       stroke-linecap="round"
       stroke-linejoin="round"
       id="path18" />
    <path
       d="m 341,13 4,4 10,-10"
       stroke="#111827"
       stroke-width="2"
       stroke-linecap="round"
       stroke-linejoin="round"
       id="path20" />
    <path
       d="m 387,5 h 12 m -6,-2 v 2 m 1.048,9.5 c -1.527,-1.5822 -2.767,-3.4435 -3.636,-5.5 m 6.088,9 h 7 m -8.5,3 5,-10 5,10 M 396.751,5 C 395.783,10.7702 392.07,15.6095 387,18.129"
       stroke="#111827"
       stroke-width="2"
       stroke-linecap="round"
       stroke-linejoin="round"
       id="path22" />
    <path
       d="M 449,9 V 7 c 0,-1.10457 -0.895,-2 -2,-2 h -10 c -1.105,0 -2,0.89543 -2,2 v 6 c 0,1.1046 0.895,2 2,2 h 2 m 2,4 h 10 c 1.105,0 2,-0.8954 2,-2 v -6 c 0,-1.10457 -0.895,-2 -2,-2 h -10 c -1.105,0 -2,0.89543 -2,2 v 6 c 0,1.1046 0.895,2 2,2 z m 7,-5 c 0,1.1046 -0.895,2 -2,2 -1.105,0 -2,-0.8954 -2,-2 0,-1.1046 0.895,-2 2,-2 1.105,0 2,0.8954 2,2 z"
       stroke="#111827"
       stroke-width="2"
       stroke-linecap="round"
       stroke-linejoin="round"
       id="path24" />
    <path
       d="m 17.6569,64.6569 c -0.9367,0.9366 -2.8953,2.8952 -4.2431,4.243 -0.7811,0.7811 -2.0461,0.7815 -2.8272,4e-4 -1.32426,-1.3243 -3.24501,-3.245 -4.24345,-4.2434 -3.1242,-3.1242 -3.1242,-8.1896 0,-11.3138 3.12419,-3.1241 8.18955,-3.1241 11.31375,0 3.1241,3.1242 3.1241,8.1896 0,11.3138 z"
       stroke="#111827"
       stroke-width="2"
       stroke-linecap="round"
       stroke-linejoin="round"
       id="path26" />
    <path
       d="m 15,59 c 0,1.6569 -1.3431,3 -3,3 -1.6569,0 -3,-1.3431 -3,-3 0,-1.6569 1.3431,-3 3,-3 1.6569,0 3,1.3431 3,3 z"
       stroke="#111827"
       stroke-width="2"
       stroke-linecap="round"
       stroke-linejoin="round"
       id="path28" />
    <path
       d="m 64,55 c 0,2.2091 -1.7909,4 -4,4 -2.2091,0 -4,-1.7909 -4,-4 0,-2.2091 1.7909,-4 4,-4 2.2091,0 4,1.7909 4,4 z"
       stroke="#111827"
       stroke-width="2"
       stroke-linecap="round"
       stroke-linejoin="round"
       id="path30" />
    <path
       d="m 60,62 c -3.866,0 -7,3.134 -7,7 h 14 c 0,-3.866 -3.134,-7 -7,-7 z"
       stroke="#111827"
       stroke-width="2"
       stroke-linecap="round"
       stroke-linejoin="round"
       id="path32" />
    <path
       d="M 108,52.3542 C 108.733,51.5238 109.805,51 111,51 c 2.209,0 4,1.7909 4,4 0,2.2091 -1.791,4 -4,4 -1.195,0 -2.267,-0.5238 -3,-1.3542 M 111,69 H 99 v -1 c 0,-3.3137 2.686,-6 6,-6 3.314,0 6,2.6863 6,6 z m 0,0 h 6 v -1 c 0,-3.3137 -2.686,-6 -6,-6 -1.093,0 -2.117,0.2922 -3,0.8027 M 109,55 c 0,2.2091 -1.791,4 -4,4 -2.209,0 -4,-1.7909 -4,-4 0,-2.2091 1.791,-4 4,-4 2.209,0 4,1.7909 4,4 z"
       stroke="#111827"
       stroke-width="2"
       stroke-linecap="round"
       stroke-linejoin="round"
       id="path34" />
    <path
       d="m 161,68 h 5 v -2 c 0,-1.6569 -1.343,-3 -3,-3 -0.956,0 -1.807,0.4468 -2.356,1.1429 M 161,68 h -10 m 10,0 v -2 c 0,-0.6562 -0.126,-1.283 -0.356,-1.8571 M 151,68 h -5 v -2 c 0,-1.6569 1.343,-3 3,-3 0.956,0 1.807,0.4468 2.356,1.1429 M 151,68 v -2 c 0,-0.6562 0.126,-1.283 0.356,-1.8571 m 0,0 C 152.094,62.301 153.895,61 156,61 c 2.105,0 3.906,1.301 4.644,3.1429 M 159,55 c 0,1.6569 -1.343,3 -3,3 -1.657,0 -3,-1.3431 -3,-3 0,-1.6569 1.343,-3 3,-3 1.657,0 3,1.3431 3,3 z m 6,3 c 0,1.1046 -0.895,2 -2,2 -1.105,0 -2,-0.8954 -2,-2 0,-1.1046 0.895,-2 2,-2 1.105,0 2,0.8954 2,2 z m -14,0 c 0,1.1046 -0.895,2 -2,2 -1.105,0 -2,-0.8954 -2,-2 0,-1.1046 0.895,-2 2,-2 1.105,0 2,0.8954 2,2 z"
       stroke="#111827"
       stroke-width="2"
       stroke-linecap="round"
       stroke-linejoin="round"
       id="path36" />
    <path
       d="M 211,69 V 53 c 0,-1.1046 -0.895,-2 -2,-2 h -10 c -1.105,0 -2,0.8954 -2,2 v 16 m 14,0 h 2 m -2,0 h -5 m -9,0 h -2 m 2,0 h 5 m -1,-14 h 1 m -1,4 h 1 m 4,-4 h 1 m -1,4 h 1 m -5,10 v -5 c 0,-0.5523 0.448,-1 1,-1 h 2 c 0.552,0 1,0.4477 1,1 v 5 m -4,0 h 4"
       stroke="#111827"
       stroke-width="2"
       stroke-linecap="round"
       stroke-linejoin="round"
       id="path38" />
    <path
       d="m 243,54 3,1 m 0,0 -3,9 c 1.773,1.3334 4.229,1.3334 6.001,0 M 246,55 l 3,9 m -3,-9 6,-2 m 6,2 3,-1 m -3,1 -3,9 c 1.773,1.3334 4.229,1.3334 6.001,0 M 258,55 l 3,9 m -3,-9 -6,-2 m 0,-2 v 2 m 0,16 V 53 m 0,16 h -3 m 3,0 h 3"
       stroke="#111827"
       stroke-width="2"
       stroke-linecap="round"
       stroke-linejoin="round"
       id="path40" />
    <path
       d="m 299,53 h -5 c -1.105,0 -2,0.8954 -2,2 v 11 c 0,1.1046 0.895,2 2,2 h 11 c 1.105,0 2,-0.8954 2,-2 v -5 m -1.414,-9.4142 c 0.781,-0.7811 2.047,-0.7811 2.828,0 0.781,0.781 0.781,2.0474 0,2.8284 L 299.828,63 H 297 v -2.8284 z"
       stroke="#111827"
       stroke-width="2"
       stroke-linecap="round"
       stroke-linejoin="round"
       id="path42" />
    <path
       d="m 356.268,51.7322 0.707,-0.7071 v 0 z M 342.5,69.0355 v 1 c 0.265,0 0.52,-0.1054 0.707,-0.2929 z m -3.5,0 h -1 c 0,0.5523 0.448,1 1,1 z m 0,-3.5711 -0.707,-0.7071 C 338.105,64.9448 338,65.1992 338,65.4644 Z m 14.439,-13.0251 c 0.586,-0.5857 1.536,-0.5857 2.122,0 l 1.414,-1.4142 c -1.367,-1.3668 -3.583,-1.3668 -4.95,0 z m 2.122,0 c 0.585,0.5858 0.585,1.5356 0,2.1214 l 1.414,1.4142 c 1.367,-1.3669 1.367,-3.5829 0,-4.9498 z m 0,2.1214 -13.768,13.7677 1.414,1.4142 13.768,-13.7677 z M 342.5,68.0355 H 339 v 2 h 3.5 z m 9.525,-17.0104 -13.732,13.7322 1.414,1.4142 13.732,-13.7322 z M 338,65.4644 v 3.5711 h 2 v -3.5711 z m 12.525,-11.5251 3.536,3.5356 1.414,-1.4142 -3.536,-3.5356 z"
       fill="#111827"
       id="path44" />
    <path
       d="m 399,60 c 0,1.6569 -1.343,3 -3,3 -1.657,0 -3,-1.3431 -3,-3 0,-1.6569 1.343,-3 3,-3 1.657,0 3,1.3431 3,3 z"
       stroke="#111827"
       stroke-width="2"
       stroke-linecap="round"
       stroke-linejoin="round"
       id="path46" />
    <path
       d="m 386.458,60 c 1.275,-4.0571 5.065,-7 9.542,-7 4.478,0 8.268,2.9429 9.543,7 -1.275,4.0571 -5.065,7 -9.543,7 -4.477,0 -8.267,-2.9429 -9.542,-7 z"
       stroke="#111827"
       stroke-width="2"
       stroke-linecap="round"
       stroke-linejoin="round"
       id="path48" />
    <path
       d="m 437,53 c 0,-1.1046 0.895,-2 2,-2 h 10 c 1.105,0 2,0.8954 2,2 v 16 l -7,-3.5 -7,3.5 z"
       stroke="#111827"
       stroke-width="2"
       stroke-linecap="round"
       stroke-linejoin="round"
       id="path50" />
    <path
       d="m 7,117 c -2.20914,0 -4,-1.791 -4,-4 v -12 c 0,-1.1046 0.89543,-2 2,-2 h 4 c 1.1046,0 2,0.8954 2,2 v 12 c 0,2.209 -1.79086,4 -4,4 z m 0,0 h 12 c 1.1046,0 2,-0.895 2,-2 v -4 c 0,-1.105 -0.8954,-2 -2,-2 H 16.6569 M 11,103.343 l 1.6569,-1.657 c 0.781,-0.781 2.0473,-0.781 2.8284,0 l 2.8284,2.829 c 0.7811,0.781 0.7811,2.047 0,2.828 l -8.48527,8.485 M 7,113 h 0.01"
       stroke="#111827"
       stroke-width="2"
       stroke-linecap="round"
       stroke-linejoin="round"
       id="path52" />
    <path
       d="m 68,109 v -7 c 0,-1.105 -0.8954,-2 -2,-2 H 54 c -1.1046,0 -2,0.895 -2,2 v 7 m 16,0 v 5 c 0,1.105 -0.8954,2 -2,2 H 54 c -1.1046,0 -2,-0.895 -2,-2 v -5 m 16,0 h -2.5858 c -0.2652,0 -0.5196,0.105 -0.7071,0.293 l -2.4142,2.414 C 62.1054,111.895 61.851,112 61.5858,112 h -3.1716 c -0.2652,0 -0.5196,-0.105 -0.7071,-0.293 l -2.4142,-2.414 C 55.1054,109.105 54.851,109 54.5858,109 H 52"
       stroke="#111827"
       stroke-width="2"
       stroke-linecap="round"
       stroke-linejoin="round"
       id="path54" />
    <path
       d="m 104,100 h -2 c -1.105,0 -2,0.895 -2,2 v 12 c 0,1.105 0.895,2 2,2 h 12 c 1.105,0 2,-0.895 2,-2 v -12 c 0,-1.105 -0.895,-2 -2,-2 h -2 m -4,-1 v 8 m 0,0 3,-3 m -3,3 -3,-3 m -5,5 h 2.586 c 0.265,0 0.519,0.105 0.707,0.293 l 2.414,2.414 c 0.188,0.188 0.442,0.293 0.707,0.293 h 3.172 c 0.265,0 0.519,-0.105 0.707,-0.293 l 2.414,-2.414 c 0.188,-0.188 0.442,-0.293 0.707,-0.293 H 116"
       stroke="#111827"
       stroke-width="2"
       stroke-linecap="round"
       stroke-linejoin="round"
       id="path56" />
    <path
       d="m 149,104 h 14 m -14,0 c -1.105,0 -2,-0.895 -2,-2 0,-1.105 0.895,-2 2,-2 h 14 c 1.105,0 2,0.895 2,2 0,1.105 -0.895,2 -2,2 m -14,0 v 10 c 0,1.105 0.895,2 2,2 h 10 c 1.105,0 2,-0.895 2,-2 v -10 m -9,4 h 4"
       stroke="#111827"
       stroke-width="2"
       stroke-linecap="round"
       stroke-linejoin="round"
       id="path58" />
    <path
       d="m 204,104 v 4 l 3,3 m 6,-3 c 0,4.971 -4.029,9 -9,9 -4.971,0 -9,-4.029 -9,-9 0,-4.971 4.029,-9 9,-9 4.971,0 9,4.029 9,9 z"
       stroke="#111827"
       stroke-width="2"
       stroke-linecap="round"
       stroke-linejoin="round"
       id="path60" />
    <path
       d="m 244,112 4.586,-4.586 c 0.781,-0.781 2.047,-0.781 2.828,0 L 256,112 m -2,-2 1.586,-1.586 c 0.781,-0.781 2.047,-0.781 2.828,0 L 260,110 m -6,-6 h 0.01 M 246,116 h 12 c 1.105,0 2,-0.895 2,-2 v -12 c 0,-1.105 -0.895,-2 -2,-2 h -12 c -1.105,0 -2,0.895 -2,2 v 12 c 0,1.105 0.895,2 2,2 z"
       stroke="#111827"
       stroke-width="2"
       stroke-linecap="round"
       stroke-linejoin="round"
       id="path62" />
    <path
       d="m 295,103 h 0.01 M 295,99 h 5 c 0.512,0 1.024,0.1952 1.414,0.5858 l 7,7.0002 c 0.781,0.781 0.781,2.047 0,2.828 l -7,7 c -0.781,0.781 -2.047,0.781 -2.828,0 l -7,-7 C 291.195,109.024 291,108.512 291,108 v -5 c 0,-2.209 1.791,-4 4,-4 z"
       stroke="#111827"
       stroke-width="2"
       stroke-linecap="round"
       stroke-linejoin="round"
       id="path64" />
    <path
       d="m 339,101 c 0,-1.1046 0.895,-2 2,-2 h 3.279 c 0.431,0 0.813,0.2754 0.949,0.6838 l 1.498,4.4932 c 0.157,0.472 -0.057,0.988 -0.502,1.211 l -2.257,1.128 c 1.102,2.445 3.072,4.415 5.517,5.517 l 1.128,-2.257 c 0.223,-0.445 0.739,-0.659 1.211,-0.502 l 4.493,1.498 c 0.409,0.136 0.684,0.518 0.684,0.949 V 115 c 0,1.105 -0.895,2 -2,2 h -1 c -8.284,0 -15,-6.716 -15,-15 z"
       stroke="#111827"
       stroke-width="2"
       stroke-linecap="round"
       stroke-linejoin="round"
       id="path66" />
    <path
       d="m 400,99 h 5 m 0,0 v 5 m 0,-5 -6,6 m -10,-6 c -1.105,0 -2,0.8954 -2,2 v 1 c 0,8.284 6.716,15 15,15 h 1 c 1.105,0 2,-0.895 2,-2 v -3.279 c 0,-0.431 -0.275,-0.813 -0.684,-0.949 l -4.493,-1.498 c -0.472,-0.157 -0.988,0.057 -1.211,0.502 l -1.128,2.257 c -2.445,-1.102 -4.415,-3.072 -5.517,-5.517 l 2.257,-1.128 c 0.445,-0.223 0.659,-0.739 0.502,-1.211 l -1.498,-4.4932 C 393.092,99.2754 392.71,99 392.279,99 Z"
       stroke="#111827"
       stroke-width="2"
       stroke-linecap="round"
       stroke-linejoin="round"
       id="path68" />
    <path
       d="m 453,99 -6,6 m 0,0 v -5 m 0,5 h 5 m -15,-6 c -1.105,0 -2,0.8954 -2,2 v 1 c 0,8.284 6.716,15 15,15 h 1 c 1.105,0 2,-0.895 2,-2 v -3.279 c 0,-0.431 -0.275,-0.813 -0.684,-0.949 l -4.493,-1.498 c -0.472,-0.157 -0.988,0.057 -1.211,0.502 l -1.128,2.257 c -2.445,-1.102 -4.415,-3.072 -5.517,-5.517 l 2.257,-1.128 c 0.445,-0.223 0.659,-0.739 0.502,-1.211 l -1.498,-4.4932 C 441.092,99.2754 440.71,99 440.279,99 Z"
       stroke="#111827"
       stroke-width="2"
       stroke-linecap="round"
       stroke-linejoin="round"
       id="path70" />
    <path
       d="M 4,150 H 20 M 4,156 H 20 M 4,162 H 20"
       stroke="#111827"
       stroke-width="2"
       stroke-linecap="round"
       stroke-linejoin="round"
       id="path72" />
    <path
       d="m 52,150 h 16 m -16,6 h 8 m -8,6 h 16"
       stroke="#111827"
       stroke-width="2"
       stroke-linecap="round"
       stroke-linejoin="round"
       id="path74" />
    <path
       d="m 100,150 h 16 m -16,6 h 16 m -16,6 h 7"
       stroke="#111827"
       stroke-width="2"
       stroke-linecap="round"
       stroke-linejoin="round"
       id="path76" />
    <path
       d="m 148,150 h 16 m -16,6 h 16 m -7,6 h 7"
       stroke="#111827"
       stroke-width="2"
       stroke-linecap="round"
       stroke-linejoin="round"
       id="path78" />
    <path
       d="m 196,152 h 16 m -16,8 h 16"
       stroke="#111827"
       stroke-width="2"
       stroke-linecap="round"
       stroke-linejoin="round"
       id="path80" />
    <path
       d="m 247,160 v -12 m 0,0 -4,4 m 4,-4 4,4 m 6,0 v 12 m 0,0 4,-4 m -4,4 -4,-4"
       stroke="#111827"
       stroke-width="2"
       stroke-linecap="round"
       stroke-linejoin="round"
       id="path82" />
    <path
       d="m 296,151 h 12 m 0,0 -4,-4 m 4,4 -4,4 m 0,6 h -12 m 0,0 4,4 m -4,-4 4,-4"
       stroke="#111827"
       stroke-width="2"
       stroke-linecap="round"
       stroke-linejoin="round"
       id="path84" />
    <path
       d="m 342,162 12,-12 m -12,0 12,12"
       stroke="#111827"
       stroke-width="2"
       stroke-linecap="round"
       stroke-linejoin="round"
       id="path86" />
    <path
       d="m 396,148 v 16 m 8,-8 h -16"
       stroke="#111827"
       stroke-width="2"
       stroke-linecap="round"
       stroke-linejoin="round"
       id="path88" />
    <path
       d="m 436,148 v 5 h 0.582 m 15.356,2 c -0.492,-3.946 -3.858,-7 -7.938,-7 -3.357,0 -6.232,2.068 -7.418,5 m 0,0 H 441 m 11,11 v -5 h -0.582 m 0,0 c -1.186,2.932 -4.061,5 -7.418,5 -4.08,0 -7.446,-3.054 -7.938,-7 m 15.356,2 H 447"
       stroke="#111827"
       stroke-width="2"
       stroke-linecap="round"
       stroke-linejoin="round"
       id="path90" />
    <path
       d="m 8.22766,201 c 0.54912,-1.165 2.03074,-2 3.77244,-2 2.2091,0 4,1.343 4,3 0,1.399 -1.2777,2.575 -3.0058,2.907 -0.5424,0.104 -0.9942,0.541 -0.9942,1.093 M 12,209 h 0.01 M 21,204 c 0,4.971 -4.0294,9 -9,9 -4.97056,0 -9,-4.029 -9,-9 0,-4.971 4.02944,-9 9,-9 4.9706,0 9,4.029 9,9 z"
       stroke="#111827"
       stroke-width="2"
       stroke-linecap="round"
       stroke-linejoin="round"
       id="path92" />
    <path
       d="m 60,201 v 2 m 0,4 h 0.01 m -6.9382,4 h 13.8564 c 1.5396,0 2.5019,-1.667 1.7321,-3 l -6.9282,-12 c -0.7698,-1.333 -2.6943,-1.333 -3.4641,0 l -6.9282,12 c -0.7698,1.333 0.1924,3 1.732,3 z"
       stroke="#111827"
       stroke-width="2"
       stroke-linecap="round"
       stroke-linejoin="round"
       id="path94" />
    <path
       d="m 104,209 c -2.761,0 -5,-2.239 -5,-5 0,-2.448 1.76,-4.486 4.084,-4.916 0.43,-2.324 2.468,-4.084 4.916,-4.084 2.448,0 4.486,1.76 4.916,4.084 2.324,0.43 4.084,2.468 4.084,4.916 0,2.761 -2.239,5 -5,5 m -7,-5 3,-3 m 0,0 3,3 m -3,-3 v 12"
       stroke="#111827"
       stroke-width="2"
       stroke-linecap="round"
       stroke-linejoin="round"
       id="path96" />
    <path
       d="m 152,208 c -2.761,0 -5,-2.239 -5,-5 0,-2.448 1.76,-4.486 4.084,-4.916 0.43,-2.324 2.468,-4.084 4.916,-4.084 2.448,0 4.486,1.76 4.916,4.084 2.324,0.43 4.084,2.468 4.084,4.916 0,2.761 -2.239,5 -5,5 m -7,3 3,3 m 0,0 3,-3 m -3,3 v -12"
       stroke="#111827"
       stroke-width="2"
       stroke-linecap="round"
       stroke-linejoin="round"
       id="path98" />
    <path
       d="m 203,195.055 c -4.5,0.497 -8,4.312 -8,8.945 0,4.971 4.029,9 9,9 4.633,0 8.448,-3.5 8.945,-8 H 203 Z"
       stroke="#111827"
       stroke-width="2"
       stroke-linecap="round"
       stroke-linejoin="round"
       id="path100" />
    <path
       d="M 212.488,201 H 207 v -5.488 c 2.557,0.904 4.584,2.931 5.488,5.488 z"
       stroke="#111827"
       stroke-width="2"
       stroke-linecap="round"
       stroke-linejoin="round"
       id="path102" />
    <path
       d="m 247,213 h 10 c 1.105,0 2,-0.895 2,-2 v -9.586 c 0,-0.265 -0.105,-0.519 -0.293,-0.707 l -5.414,-5.414 C 253.105,195.105 252.851,195 252.586,195 H 247 c -1.105,0 -2,0.895 -2,2 v 14 c 0,1.105 0.895,2 2,2 z"
       stroke="#111827"
       stroke-width="2"
       stroke-linecap="round"
       stroke-linejoin="round"
       id="path104" />
    <path
       d="m 300,202 v 6 m 0,0 -3,-3 m 3,3 3,-3 m 2,8 h -10 c -1.105,0 -2,-0.895 -2,-2 v -14 c 0,-1.105 0.895,-2 2,-2 h 5.586 c 0.265,0 0.519,0.105 0.707,0.293 l 5.414,5.414 c 0.188,0.188 0.293,0.442 0.293,0.707 V 211 c 0,1.105 -0.895,2 -2,2 z"
       stroke="#111827"
       stroke-width="2"
       stroke-linecap="round"
       stroke-linejoin="round"
       id="path106" />
    <path
       d="m 345,205 h 6 m -3,-3 v 6 m 5,5 h -10 c -1.105,0 -2,-0.895 -2,-2 v -14 c 0,-1.105 0.895,-2 2,-2 h 5.586 c 0.265,0 0.519,0.105 0.707,0.293 l 5.414,5.414 c 0.188,0.188 0.293,0.442 0.293,0.707 V 211 c 0,1.105 -0.895,2 -2,2 z"
       stroke="#111827"
       stroke-width="2"
       stroke-linecap="round"
       stroke-linejoin="round"
       id="path108" />
    <path
       d="m 393,205 h 6 m 2,8 h -10 c -1.105,0 -2,-0.895 -2,-2 v -14 c 0,-1.105 0.895,-2 2,-2 h 5.586 c 0.265,0 0.519,0.105 0.707,0.293 l 5.414,5.414 c 0.188,0.188 0.293,0.442 0.293,0.707 V 211 c 0,1.105 -0.895,2 -2,2 z"
       stroke="#111827"
       stroke-width="2"
       stroke-linecap="round"
       stroke-linejoin="round"
       id="path110" />
    <path
       d="m 440,199 v -4 m 8,4 v -4 m -9,8 h 10 m -12,10 h 14 c 1.105,0 2,-0.895 2,-2 v -12 c 0,-1.105 -0.895,-2 -2,-2 h -14 c -1.105,0 -2,0.895 -2,2 v 12 c 0,1.105 0.895,2 2,2 z"
       stroke="#111827"
       stroke-width="2"
       stroke-linecap="round"
       stroke-linejoin="round"
       id="path112" />
    <path
       d="m 3,249 c 0,-1.105 0.89543,-2 2,-2 h 0.92963 c 0.66871,0 1.29317,-0.334 1.6641,-0.891 l 0.81254,-1.218 C 8.7772,244.334 9.40166,244 10.0704,244 h 3.8592 c 0.6687,0 1.2932,0.334 1.6641,0.891 l 0.8126,1.218 c 0.3709,0.557 0.9954,0.891 1.6641,0.891 H 19 c 1.1046,0 2,0.895 2,2 v 9 c 0,1.105 -0.8954,2 -2,2 H 5 c -1.10457,0 -2,-0.895 -2,-2 z"
       stroke="#111827"
       stroke-width="2"
       stroke-linecap="round"
       stroke-linejoin="round"
       id="path114" />
    <path
       d="m 15,253 c 0,1.657 -1.3431,3 -3,3 -1.6569,0 -3,-1.343 -3,-3 0,-1.657 1.3431,-3 3,-3 1.6569,0 3,1.343 3,3 z"
       stroke="#111827"
       stroke-width="2"
       stroke-linecap="round"
       stroke-linejoin="round"
       id="path116" />
    <path
       d="m 69,252 c 0,4.971 -4.0294,9 -9,9 m 9,-9 c 0,-4.971 -4.0294,-9 -9,-9 m 9,9 H 51 m 9,9 c -4.9706,0 -9,-4.029 -9,-9 m 9,9 c 1.6569,0 3,-4.029 3,-9 0,-4.971 -1.3431,-9 -3,-9 m 0,18 c -1.6569,0 -3,-4.029 -3,-9 0,-4.971 1.3431,-9 3,-9 m -9,9 c 0,-4.971 4.0294,-9 9,-9"
       stroke="#111827"
       stroke-width="2"
       stroke-linecap="round"
       stroke-linejoin="round"
       id="path118" />
    <path
       d="m 104,256 h -2 c -1.105,0 -2,-0.895 -2,-2 v -8 c 0,-1.105 0.895,-2 2,-2 h 8 c 1.105,0 2,0.895 2,2 v 2 m -6,12 h 8 c 1.105,0 2,-0.895 2,-2 v -8 c 0,-1.105 -0.895,-2 -2,-2 h -8 c -1.105,0 -2,0.895 -2,2 v 8 c 0,1.105 0.895,2 2,2 z"
       stroke="#111827"
       stroke-width="2"
       stroke-linecap="round"
       stroke-linejoin="round"
       id="path120" />
    <path
       d="m 152.684,253.342 c 0.202,-0.404 0.316,-0.86 0.316,-1.342 0,-0.482 -0.114,-0.938 -0.316,-1.342 m 0,2.684 c -0.493,0.983 -1.51,1.658 -2.684,1.658 -1.657,0 -3,-1.343 -3,-3 0,-1.657 1.343,-3 3,-3 1.174,0 2.191,0.675 2.684,1.658 m 0,2.684 6.632,3.316 m -6.632,-6 6.632,-3.316 m 0,0 c 0.493,0.983 1.51,1.658 2.684,1.658 1.657,0 3,-1.343 3,-3 0,-1.657 -1.343,-3 -3,-3 -1.657,0 -3,1.343 -3,3 0,0.482 0.114,0.938 0.316,1.342 z m 0,9.316 c -0.202,0.404 -0.316,0.86 -0.316,1.342 0,1.657 1.343,3 3,3 1.657,0 3,-1.343 3,-3 0,-1.657 -1.343,-3 -3,-3 -1.174,0 -2.191,0.675 -2.684,1.658 z"
       stroke="#111827"
       stroke-width="2"
       stroke-linecap="round"
       stroke-linejoin="round"
       id="path122" />
    <path
       d="m 196.318,246.318 c -1.757,1.757 -1.757,4.607 0,6.364 l 7.682,7.682 7.682,-7.682 c 1.757,-1.757 1.757,-4.607 0,-6.364 -1.757,-1.757 -4.607,-1.757 -6.364,0 l -1.318,1.318 -1.318,-1.318 c -1.757,-1.757 -4.607,-1.757 -6.364,0 z"
       stroke="#111827"
       stroke-width="2"
       stroke-linecap="round"
       stroke-linejoin="round"
       id="path124" />
    <path
       d="M 243.055,251 H 245 c 1.105,0 2,0.895 2,2 v 1 c 0,1.105 0.895,2 2,2 1.105,0 2,0.895 2,2 v 2.945 m -3,-17.009 v 1.564 c 0,1.381 1.119,2.5 2.5,2.5 h 0.5 c 1.105,0 2,0.895 2,2 0,1.105 0.895,2 2,2 1.105,0 2,-0.895 2,-2 0,-1.105 0.895,-2 2,-2 h 1.064 M 255,260.488 V 258 c 0,-1.105 0.895,-2 2,-2 h 3.064 M 261,252 c 0,4.971 -4.029,9 -9,9 -4.971,0 -9,-4.029 -9,-9 0,-4.971 4.029,-9 9,-9 4.971,0 9,4.029 9,9 z"
       stroke="#111827"
       stroke-width="2"
       stroke-linecap="round"
       stroke-linejoin="round"
       id="path126" />
    <path
       d="m 303.536,248.464 c 1.952,1.953 1.952,5.119 0,7.072 m 2.828,-9.9 c 3.515,3.515 3.515,9.213 0,12.728 M 293.586,255 H 292 c -0.552,0 -1,-0.448 -1,-1 v -4 c 0,-0.552 0.448,-1 1,-1 h 1.586 l 4.707,-4.707 c 0.63,-0.63 1.707,-0.184 1.707,0.707 v 14 c 0,0.891 -1.077,1.337 -1.707,0.707 z"
       stroke="#111827"
       stroke-width="2"
       stroke-linecap="round"
       stroke-linejoin="round"
       id="path128" />
    <path
       fill-rule="evenodd"
       clip-rule="evenodd"
       d="M 341.586,255 H 340 c -0.552,0 -1,-0.448 -1,-1 v -4 c 0,-0.552 0.448,-1 1,-1 h 1.586 l 4.707,-4.707 c 0.63,-0.63 1.707,-0.184 1.707,0.707 v 14 c 0,0.891 -1.077,1.337 -1.707,0.707 z"
       stroke="#111827"
       stroke-width="2"
       stroke-linecap="round"
       stroke-linejoin="round"
       id="path130" />
    <path
       d="m 353,254 2,-2 m 0,0 2,-2 m -2,2 -2,-2 m 2,2 2,2"
       stroke="#111827"
       stroke-width="2"
       stroke-linecap="round"
       stroke-linejoin="round"
       id="path132" />
    <path
       d="m 396,246 v -2 m 0,2 c -1.105,0 -2,0.895 -2,2 0,1.105 0.895,2 2,2 m 0,-4 c 1.105,0 2,0.895 2,2 0,1.105 -0.895,2 -2,2 m -6,8 c 1.105,0 2,-0.895 2,-2 0,-1.105 -0.895,-2 -2,-2 m 0,4 c -1.105,0 -2,-0.895 -2,-2 0,-1.105 0.895,-2 2,-2 m 0,4 v 2 m 0,-6 v -10 m 6,6 v 10 m 6,-2 c 1.105,0 2,-0.895 2,-2 0,-1.105 -0.895,-2 -2,-2 m 0,4 c -1.105,0 -2,-0.895 -2,-2 0,-1.105 0.895,-2 2,-2 m 0,4 v 2 m 0,-6 v -10"
       stroke="#111827"
       stroke-width="2"
       stroke-linecap="round"
       stroke-linejoin="round"
       id="path134" />
    <path
       d="m 445.828,250.172 c -1.562,-1.563 -4.094,-1.563 -5.656,0 l -4,4 c -1.563,1.562 -1.563,4.094 0,5.656 1.562,1.563 4.094,1.563 5.656,0 l 1.102,-1.101 m -0.758,-4.899 c 1.562,1.563 4.094,1.563 5.656,0 l 4,-4 c 1.563,-1.562 1.563,-4.094 0,-5.656 -1.562,-1.563 -4.094,-1.563 -5.656,0 l -1.1,1.099"
       stroke="#111827"
       stroke-width="2"
       stroke-linecap="round"
       stroke-linejoin="round"
       id="path136" />
    <path
       d="m 3,307 v -8.93 c 0,-0.668 0.3342,-1.293 0.8906,-1.664 l 7,-4.666 c 0.6718,-0.448 1.547,-0.448 2.2188,0 l 7,4.666 C 20.6658,296.777 21,297.402 21,298.07 V 307 m -18,0 c 0,1.105 0.89543,2 2,2 h 14 c 1.1046,0 2,-0.895 2,-2 m -18,0 6.75,-4.5 M 21,307 14.25,302.5 M 3,298 9.75,302.5 M 21,298 l -6.75,4.5 m 0,0 -1.1406,0.761 c -0.6718,0.447 -1.547,0.447 -2.2188,0 L 9.75,302.5"
       stroke="#111827"
       stroke-width="2"
       stroke-linecap="round"
       stroke-linejoin="round"
       id="path138" />
    <path
       d="m 56,295 v 8 c 0,1.105 0.8954,2 2,2 h 6 m -8,-10 v -2 c 0,-1.105 0.8954,-2 2,-2 h 4.5858 c 0.2652,0 0.5196,0.105 0.7071,0.293 l 4.4142,4.414 C 67.8946,295.895 68,296.149 68,296.414 V 303 c 0,1.105 -0.8954,2 -2,2 h -2 m -8,-10 h -2 c -1.1046,0 -2,0.895 -2,2 v 10 c 0,1.105 0.8954,2 2,2 h 8 c 1.1046,0 2,-0.895 2,-2 v -2"
       stroke="#111827"
       stroke-width="2"
       stroke-linecap="round"
       stroke-linejoin="round"
       id="path140" />
    <path
       d="m 99,298 h 18 m -14,5 h 1 m 4,0 h 1 m -7,4 h 12 c 1.657,0 3,-1.343 3,-3 v -8 c 0,-1.657 -1.343,-3 -3,-3 h -12 c -1.657,0 -3,1.343 -3,3 v 8 c 0,1.657 1.343,3 3,3 z"
       stroke="#111827"
       stroke-width="2"
       stroke-linecap="round"
       stroke-linejoin="round"
       id="path142" />
    <path
       d="m 156,303 v 2 m -6,4 h 12 c 1.105,0 2,-0.895 2,-2 v -6 c 0,-1.105 -0.895,-2 -2,-2 h -12 c -1.105,0 -2,0.895 -2,2 v 6 c 0,1.105 0.895,2 2,2 z m 10,-10 v -4 c 0,-2.209 -1.791,-4 -4,-4 -2.209,0 -4,1.791 -4,4 v 4 z"
       stroke="#111827"
       stroke-width="2"
       stroke-linecap="round"
       id="path144" />
    <path
       d="m 205,295 h 8 m 0,0 v 8 m 0,-8 -8,8 -4,-4 -6,6"
       stroke="#111827"
       stroke-width="2"
       stroke-linecap="round"
       stroke-linejoin="round"
       id="path146" />
    <path
       d="m 253,305 h 8 m 0,0 v -8 m 0,8 -8,-8 -4,4 -6,-6"
       stroke="#111827"
       stroke-width="2"
       stroke-linecap="round"
       stroke-linejoin="round"
       id="path148" />
    <path
       d="m 291,292 c 0,-0.552 0.448,-1 1,-1 h 16 c 0.552,0 1,0.448 1,1 v 2.586 c 0,0.265 -0.105,0.519 -0.293,0.707 l -6.414,6.414 c -0.188,0.188 -0.293,0.442 -0.293,0.707 V 305 l -4,4 v -6.586 c 0,-0.265 -0.105,-0.519 -0.293,-0.707 l -6.414,-6.414 C 291.105,295.105 291,294.851 291,294.586 Z"
       stroke="#111827"
       stroke-width="2"
       stroke-linecap="round"
       stroke-linejoin="round"
       id="path150" />
    <path
       d="m 352,300 c 0,-2.209 -1.791,-4 -4,-4 -2.209,0 -4,1.791 -4,4 0,2.209 1.791,4 4,4 2.209,0 4,-1.791 4,-4 z m 0,0 v 1.5 c 0,1.381 1.119,2.5 2.5,2.5 1.381,0 2.5,-1.119 2.5,-2.5 V 300 c 0,-4.971 -4.029,-9 -9,-9 -4.971,0 -9,4.029 -9,9 0,4.971 4.029,9 9,9 m 4.5,-1.206 c -1.42,0.82 -2.97,1.209 -4.5,1.207"
       stroke="#111827"
       stroke-width="2"
       stroke-linecap="round"
       stroke-linejoin="round"
       id="path152" />
    <path
       d="m 403,295 -0.867,12.142 c -0.075,1.047 -0.946,1.858 -1.995,1.858 h -8.276 c -1.049,0 -1.92,-0.811 -1.995,-1.858 L 389,295 m 5,4 v 6 m 4,-6 v 6 m 1,-10 v -3 c 0,-0.552 -0.448,-1 -1,-1 h -4 c -0.552,0 -1,0.448 -1,1 v 3 m -5,0 h 16"
       stroke="#111827"
       stroke-width="2"
       stroke-linecap="round"
       stroke-linejoin="round"
       id="path154" />
    <path
       d="m 445,304 h -1 v -4 h -1 m 1,-4 h 0.01 m 8.99,4 c 0,4.971 -4.029,9 -9,9 -4.971,0 -9,-4.029 -9,-9 0,-4.971 4.029,-9 9,-9 4.971,0 9,4.029 9,9 z"
       stroke="#111827"
       stroke-width="2"
       stroke-linecap="round"
       stroke-linejoin="round"
       id="path156" />
    <path
       d="m 5,346 7,-7 m 0,0 7,7 m -7,-7 v 18"
       stroke="#111827"
       stroke-width="2"
       stroke-linecap="round"
       stroke-linejoin="round"
       id="path158" />
    <path
       d="m 62,341 7,7 m 0,0 -7,7 m 7,-7 H 51"
       stroke="#111827"
       stroke-width="2"
       stroke-linecap="round"
       stroke-linejoin="round"
       id="path160" />
    <path
       d="m 115,350 -7,7 m 0,0 -7,-7 m 7,7 v -18"
       stroke="#111827"
       stroke-width="2"
       stroke-linecap="round"
       stroke-linejoin="round"
       id="path162" />
    <path
       d="m 154,355 -7,-7 m 0,0 7,-7 m -7,7 h 18"
       stroke="#111827"
       stroke-width="2"
       stroke-linecap="round"
       stroke-linejoin="round"
       id="path164" />
    <path
       d="m 205,345 3,3 m 0,0 -3,3 m 3,-3 h -8 m 13,0 c 0,4.971 -4.029,9 -9,9 -4.971,0 -9,-4.029 -9,-9 0,-4.971 4.029,-9 9,-9 4.971,0 9,4.029 9,9 z"
       stroke="#111827"
       stroke-width="2"
       stroke-linecap="round"
       stroke-linejoin="round"
       id="path166" />
    <path
       d="m 255,349 -3,3 m 0,0 -3,-3 m 3,3 v -8 m 0,13 c -4.971,0 -9,-4.029 -9,-9 0,-4.971 4.029,-9 9,-9 4.971,0 9,4.029 9,9 0,4.971 -4.029,9 -9,9 z"
       stroke="#111827"
       stroke-width="2"
       stroke-linecap="round"
       stroke-linejoin="round"
       id="path168" />
    <path
       d="m 299,351 -3,-3 m 0,0 3,-3 m -3,3 h 8 m -13,0 c 0,-4.971 4.029,-9 9,-9 4.971,0 9,4.029 9,9 0,4.971 -4.029,9 -9,9 -4.971,0 -9,-4.029 -9,-9 z"
       stroke="#111827"
       stroke-width="2"
       stroke-linecap="round"
       stroke-linejoin="round"
       id="path170" />
    <path
       d="m 345,347 3,-3 m 0,0 3,3 m -3,-3 v 8 m 0,-13 c 4.971,0 9,4.029 9,9 0,4.971 -4.029,9 -9,9 -4.971,0 -9,-4.029 -9,-9 0,-4.971 4.029,-9 9,-9 z"
       stroke="#111827"
       stroke-width="2"
       stroke-linecap="round"
       stroke-linejoin="round"
       id="path172" />
    <path
       d="m 387,340 h 13 m -13,4 h 9 m -9,4 h 6 m 4,0 4,-4 m 0,0 4,4 m -4,-4 v 12"
       stroke="#111827"
       stroke-width="2"
       stroke-linecap="round"
       stroke-linejoin="round"
       id="path174" />
    <path
       d="m 435,340 h 13 m -13,4 h 9 m -9,4 h 9 m 5,-4 v 12 m 0,0 -4,-4 m 4,4 4,-4"
       stroke="#111827"
       stroke-width="2"
       stroke-linecap="round"
       stroke-linejoin="round"
       id="path176" />
    <path
       d="m 10,398 2,-2 m 0,0 2,-2 m -2,2 -2,-2 m 2,2 2,2 m 7,-2 c 0,4.971 -4.0294,9 -9,9 -4.97056,0 -9,-4.029 -9,-9 0,-4.971 4.02944,-9 9,-9 4.9706,0 9,4.029 9,9 z"
       stroke="#111827"
       stroke-width="2"
       stroke-linecap="round"
       stroke-linejoin="round"
       id="path178" />
    <path
       d="m 57,396 2,2 4,-4 m 6,2 c 0,4.971 -4.0294,9 -9,9 -4.9706,0 -9,-4.029 -9,-9 0,-4.971 4.0294,-9 9,-9 4.9706,0 9,4.029 9,9 z"
       stroke="#111827"
       stroke-width="2"
       stroke-linecap="round"
       stroke-linejoin="round"
       id="path180" />
    <path
       d="m 108,392 v 4 m 0,4 h 0.01 m 8.99,-4 c 0,4.971 -4.029,9 -9,9 -4.971,0 -9,-4.029 -9,-9 0,-4.971 4.029,-9 9,-9 4.971,0 9,4.029 9,9 z"
       stroke="#111827"
       stroke-width="2"
       stroke-linecap="round"
       stroke-linejoin="round"
       id="path182" />
    <path
       d="m 156,393 v 3 m 0,0 v 3 m 0,-3 h 3 m -3,0 h -3 m 12,0 c 0,4.971 -4.029,9 -9,9 -4.971,0 -9,-4.029 -9,-9 0,-4.971 4.029,-9 9,-9 4.971,0 9,4.029 9,9 z"
       stroke="#111827"
       stroke-width="2"
       stroke-linecap="round"
       stroke-linejoin="round"
       id="path184" />
    <path
       d="m 207,396 h -6 m 12,0 c 0,4.971 -4.029,9 -9,9 -4.971,0 -9,-4.029 -9,-9 0,-4.971 4.029,-9 9,-9 4.971,0 9,4.029 9,9 z"
       stroke="#111827"
       stroke-width="2"
       stroke-linecap="round"
       stroke-linejoin="round"
       id="path186" />
    <path
       d="M 245.121,401.804 C 247.153,400.655 249.5,400 252,400 c 2.5,0 4.847,0.655 6.879,1.804 M 255,394 c 0,1.657 -1.343,3 -3,3 -1.657,0 -3,-1.343 -3,-3 0,-1.657 1.343,-3 3,-3 1.657,0 3,1.343 3,3 z m 6,2 c 0,4.971 -4.029,9 -9,9 -4.971,0 -9,-4.029 -9,-9 0,-4.971 4.029,-9 9,-9 4.971,0 9,4.029 9,9 z"
       stroke="#111827"
       stroke-width="2"
       stroke-linecap="round"
       stroke-linejoin="round"
       id="path188" />
    <path
       d="m 309,405 -6,-6 m 2,-5 c 0,3.866 -3.134,7 -7,7 -3.866,0 -7,-3.134 -7,-7 0,-3.866 3.134,-7 7,-7 3.866,0 7,3.134 7,7 z"
       stroke="#111827"
       stroke-width="2"
       stroke-linecap="round"
       stroke-linejoin="round"
       id="path190" />
    <path
       d="m 298,391 v 3 m 0,0 v 3 m 0,-3 h 3 m -3,0 h -3"
       stroke="#111827"
       stroke-width="2"
       stroke-linecap="round"
       stroke-linejoin="round"
       id="path192" />
    <path
       d="m 357,405 -6,-6 m 2,-5 c 0,3.866 -3.134,7 -7,7 -3.866,0 -7,-3.134 -7,-7 0,-3.866 3.134,-7 7,-7 3.866,0 7,3.134 7,7 z"
       stroke="#111827"
       stroke-width="2"
       stroke-linecap="round"
       stroke-linejoin="round"
       id="path194" />
    <path
       d="m 349,394 h -6"
       stroke="#111827"
       stroke-width="2"
       stroke-linecap="round"
       stroke-linejoin="round"
       id="path196" />
    <path
       d="m 405,405 -6,-6 m 2,-5 c 0,3.866 -3.134,7 -7,7 -3.866,0 -7,-3.134 -7,-7 0,-3.866 3.134,-7 7,-7 3.866,0 7,3.134 7,7 z"
       stroke="#111827"
       stroke-width="2"
       stroke-linecap="round"
       stroke-linejoin="round"
       id="path198" />
    <path
       d="m 450,393 v 3 m 0,0 v 3 m 0,-3 h 3 m -3,0 h -3 m -2,-5 c 0,2.209 -1.791,4 -4,4 -2.209,0 -4,-1.791 -4,-4 0,-2.209 1.791,-4 4,-4 2.209,0 4,1.791 4,4 z m -10,13 c 0,-3.314 2.686,-6 6,-6 3.314,0 6,2.686 6,6 v 1 h -12 z"
       stroke="#111827"
       stroke-width="2"
       stroke-linecap="round"
       stroke-linejoin="round"
       id="path200" />
    <path
       d="m 5,444 h 0.01 m 6.99,0 h 0.01 m 6.99,0 h 0.01 M 6,444 c 0,0.552 -0.44772,1 -1,1 -0.55228,0 -1,-0.448 -1,-1 0,-0.552 0.44772,-1 1,-1 0.55228,0 1,0.448 1,1 z m 7,0 c 0,0.552 -0.4477,1 -1,1 -0.5523,0 -1,-0.448 -1,-1 0,-0.552 0.4477,-1 1,-1 0.5523,0 1,0.448 1,1 z m 7,0 c 0,0.552 -0.4477,1 -1,1 -0.5523,0 -1,-0.448 -1,-1 0,-0.552 0.4477,-1 1,-1 0.5523,0 1,0.448 1,1 z"
       stroke="#111827"
       stroke-width="2"
       stroke-linecap="round"
       stroke-linejoin="round"
       id="path202" />
    <path
       d="m 60,437 v 0.01 m 0,6.99 v 0.01 m 0,6.99 v 0.01 M 60,438 c -0.5523,0 -1,-0.448 -1,-1 0,-0.552 0.4477,-1 1,-1 0.5523,0 1,0.448 1,1 0,0.552 -0.4477,1 -1,1 z m 0,7 c -0.5523,0 -1,-0.448 -1,-1 0,-0.552 0.4477,-1 1,-1 0.5523,0 1,0.448 1,1 0,0.552 -0.4477,1 -1,1 z m 0,7 c -0.5523,0 -1,-0.448 -1,-1 0,-0.552 0.4477,-1 1,-1 0.5523,0 1,0.448 1,1 0,0.552 -0.4477,1 -1,1 z"
       stroke="#111827"
       stroke-width="2"
       stroke-linecap="round"
       stroke-linejoin="round"
       id="path204" />
    <path
       d="m 100,448 v 1 c 0,1.657 1.343,3 3,3 h 10 c 1.657,0 3,-1.343 3,-3 v -1 m -4,-8 -4,-4 m 0,0 -4,4 m 4,-4 v 12"
       stroke="#111827"
       stroke-width="2"
       stroke-linecap="round"
       stroke-linejoin="round"
       id="path206" />
    <path
       d="m 148,448 v 1 c 0,1.657 1.343,3 3,3 h 10 c 1.657,0 3,-1.343 3,-3 v -1 m -4,-4 -4,4 m 0,0 -4,-4 m 4,4 v -12"
       stroke="#111827"
       stroke-width="2"
       stroke-linecap="round"
       stroke-linejoin="round"
       id="path208" />
    <path
       d="m 196,438 h 16 m -16,4 h 16 m -16,4 h 16 m -16,4 h 16"
       stroke="#111827"
       stroke-width="2"
       stroke-linecap="round"
       stroke-linejoin="round"
       id="path210" />
    <path
       d="m 249,449 v -10 m 0,10 c 0,1.105 -0.895,2 -2,2 h -2 c -1.105,0 -2,-0.895 -2,-2 v -10 c 0,-1.105 0.895,-2 2,-2 h 2 c 1.105,0 2,0.895 2,2 m 0,10 c 0,1.105 0.895,2 2,2 h 2 c 1.105,0 2,-0.895 2,-2 m -6,-10 c 0,-1.105 0.895,-2 2,-2 h 2 c 1.105,0 2,0.895 2,2 m 0,10 v -10 m 0,10 c 0,1.105 0.895,2 2,2 h 2 c 1.105,0 2,-0.895 2,-2 v -10 c 0,-1.105 -0.895,-2 -2,-2 h -2 c -1.105,0 -2,0.895 -2,2"
       stroke="#111827"
       stroke-width="2"
       stroke-linecap="round"
       stroke-linejoin="round"
       id="path212" />
    <path
       d="m 303.172,439 -6.586,6.586 c -0.781,0.781 -0.781,2.047 0,2.828 0.781,0.781 2.047,0.781 2.828,0 l 6.414,-6.586 c 1.563,-1.562 1.563,-4.094 0,-5.656 -1.562,-1.563 -4.094,-1.563 -5.656,0 l -6.415,6.585 c -2.343,2.344 -2.343,6.142 0,8.486 2.344,2.343 6.142,2.343 8.486,0 L 308.5,445"
       stroke="#111827"
       stroke-width="2"
       stroke-linecap="round"
       stroke-linejoin="round"
       id="path214" />
    <path
       d="m 345.172,446.828 c 1.562,1.563 4.094,1.563 5.656,0 M 351,442 h -0.01 m -5.99,0 h -0.01 m -5.99,2 c 0,4.971 4.029,9 9,9 4.971,0 9,-4.029 9,-9 0,-4.971 -4.029,-9 -9,-9 -4.971,0 -9,4.029 -9,9 z"
       stroke="#111827"
       stroke-width="2"
       stroke-linecap="round"
       stroke-linejoin="round"
       id="path216" />
    <path
       d="m 398.828,448.172 c -1.562,-1.562 -4.094,-1.562 -5.656,0 M 399,442 h -0.01 m -5.99,0 h -0.01 m -5.99,2 c 0,4.971 4.029,9 9,9 4.971,0 9,-4.029 9,-9 0,-4.971 -4.029,-9 -9,-9 -4.971,0 -9,4.029 -9,9 z"
       stroke="#111827"
       stroke-width="2"
       stroke-linecap="round"
       stroke-linejoin="round"
       id="path218" />
    <path
       d="m 449,449 h 2 c 1.105,0 2,-0.895 2,-2 v -4 c 0,-1.105 -0.895,-2 -2,-2 h -14 c -1.105,0 -2,0.895 -2,2 v 4 c 0,1.105 0.895,2 2,2 h 2 m 2,4 h 6 c 1.105,0 2,-0.895 2,-2 v -4 c 0,-1.105 -0.895,-2 -2,-2 h -6 c -1.105,0 -2,0.895 -2,2 v 4 c 0,1.105 0.895,2 2,2 z m 8,-12 v -4 c 0,-1.105 -0.895,-2 -2,-2 h -6 c -1.105,0 -2,0.895 -2,2 v 4 z"
       stroke="#111827"
       stroke-width="2"
       stroke-linecap="round"
       stroke-linejoin="round"
       id="path220" />
    <path
       d="m 13.8434,489.655 c 0.3619,0.418 0.9935,0.462 1.4106,0.1 0.4172,-0.362 0.4619,-0.993 0.1,-1.41 z m -3.6867,4.69 c -0.36199,-0.418 -0.99357,-0.462 -1.41071,-0.1 -0.41714,0.362 -0.46188,0.993 -0.09992,1.41 z M 13,487 c 0,-0.552 -0.4477,-1 -1,-1 -0.5523,0 -1,0.448 -1,1 z m -2,10 c 0,0.552 0.4477,1 1,1 0.5523,0 1,-0.448 1,-1 z m 9,-5 c 0,4.418 -3.5817,8 -8,8 v 2 c 5.5228,0 10,-4.477 10,-10 z m -8,8 c -4.41828,0 -8,-3.582 -8,-8 H 2 c 0,5.523 4.47715,10 10,10 z m -8,-8 c 0,-4.418 3.58172,-8 8,-8 v -2 c -5.52285,0 -10,4.477 -10,10 z m 8,-8 c 4.4183,0 8,3.582 8,8 h 2 c 0,-5.523 -4.4772,-10 -10,-10 z m 0,7 c -0.6585,0 -1.2095,-0.18 -1.5666,-0.418 C 10.0693,490.339 10,490.114 10,490 H 8 c 0,0.991 0.6023,1.765 1.32398,2.246 C 10.0526,492.732 11.0017,493 12,493 Z m -2,-1 c 0,-0.114 0.0693,-0.339 0.4334,-0.582 C 10.7905,489.18 11.3415,489 12,489 v -2 c -0.9983,0 -1.9474,0.268 -2.67602,0.754 C 8.6023,488.235 8,489.009 8,490 Z m 2,-1 c 0.9038,0 1.563,0.332 1.8434,0.655 l 1.5106,-1.31 C 14.5969,487.472 13.3171,487 12,487 Z m 0,4 c 0.6585,0 1.2095,0.18 1.5666,0.418 C 13.9308,493.661 14,493.886 14,494 h 2 c 0,-0.991 -0.6023,-1.765 -1.324,-2.246 C 13.9474,491.268 12.9983,491 12,491 Z m -1,-6 v 1 h 2 v -1 z m 0,9 v 1 h 2 v -1 z m 1,-1 c -0.9038,0 -1.563,-0.332 -1.8433,-0.655 l -1.51063,1.31 C 9.40317,496.528 10.683,497 12,497 Z m 2,-1 c 0,0.114 -0.0692,0.339 -0.4334,0.582 C 13.2095,494.82 12.6586,495 12,495 v 2 c 0.9983,0 1.9474,-0.268 2.676,-0.754 C 15.3977,495.765 16,494.991 16,494 Z m -3,-6 v 8 h 2 v -8 z"
       fill="#111827"
       id="path222" />
    <path
       d="m 57,488 3,5 m 0,0 3,-5 m -3,5 v 4 m -3,-5 h 6 m -6,3 h 6 m 6,-3 c 0,4.971 -4.0294,9 -9,9 -4.9706,0 -9,-4.029 -9,-9 0,-4.971 4.0294,-9 9,-9 4.9706,0 9,4.029 9,9 z"
       stroke="#111827"
       stroke-width="2"
       stroke-linecap="round"
       stroke-linejoin="round"
       id="path224" />
    <path
       d="m 110.121,495.536 c -1.171,1.952 -3.071,1.952 -4.242,0 -1.172,-1.953 -1.172,-5.119 0,-7.072 1.171,-1.952 3.071,-1.952 4.242,0 M 104,490.5 h 4 m -4,3 h 4 m 9,-1.5 c 0,4.971 -4.029,9 -9,9 -4.971,0 -9,-4.029 -9,-9 0,-4.971 4.029,-9 9,-9 4.971,0 9,4.029 9,9 z"
       stroke="#111827"
       stroke-width="2"
       stroke-linecap="round"
       stroke-linejoin="round"
       id="path226" />
    <path
       d="m 159,489 c 0,-1.105 -0.895,-2 -2,-2 -1.105,0 -2,0.895 -2,2 v 5 c 0,1.105 -0.895,2 -2,2 h 6 m -6,-4 h 4 m 8,0 c 0,4.971 -4.029,9 -9,9 -4.971,0 -9,-4.029 -9,-9 0,-4.971 4.029,-9 9,-9 4.971,0 9,4.029 9,9 z"
       stroke="#111827"
       stroke-width="2"
       stroke-linecap="round"
       stroke-linejoin="round"
       id="path228" />
    <path
       d="m 201,488 h 6 m -5,0 c 1.657,0 3,1.343 3,3 0,1.657 -1.343,3 -3,3 h -1 l 3,3 m -3,-6 h 6 m 6,1 c 0,4.971 -4.029,9 -9,9 -4.971,0 -9,-4.029 -9,-9 0,-4.971 4.029,-9 9,-9 4.971,0 9,4.029 9,9 z"
       stroke="#111827"
       stroke-width="2"
       stroke-linecap="round"
       stroke-linejoin="round"
       id="path230" />
    <path
       d="m 259,489 -7,7 -7,-7"
       stroke="#111827"
       stroke-width="2"
       stroke-linecap="round"
       stroke-linejoin="round"
       id="path232" />
    <path
       d="m 297,485 7,7 -7,7"
       stroke="#111827"
       stroke-width="2"
       stroke-linecap="round"
       stroke-linejoin="round"
       id="path234"
       inkscape:export-filename="chevron-right.svg"
       inkscape:export-xdpi="116.114"
       inkscape:export-ydpi="116.114" />
    <path
       d="m 341,495 7,-7 7,7"
       stroke="#111827"
       stroke-width="2"
       stroke-linecap="round"
       stroke-linejoin="round"
       id="path236" />
    <path
       d="m 399,499 -7,-7 7,-7"
       stroke="#111827"
       stroke-width="2"
       stroke-linecap="round"
       stroke-linejoin="round"
       id="path238" />
    <path
       d="m 440,489 4,-4 4,4 m 0,6 -4,4 -4,-4"
       stroke="#111827"
       stroke-width="2"
       stroke-linecap="round"
       stroke-linejoin="round"
       id="path240" />
    <path
       d="m 8,540 h 0.01 m 3.99,0 h 0.01 m 3.99,0 h 0.01 m 4.99,0 c 0,4.418 -4.0294,8 -9,8 -1.5393,0 -2.98828,-0.343 -4.25533,-0.949 L 3,548 4.39499,544.28 C 3.51156,543.042 3,541.574 3,540 c 0,-4.418 4.02944,-8 9,-8 4.9706,0 9,3.582 9,8 z"
       stroke="#111827"
       stroke-width="2"
       stroke-linecap="round"
       stroke-linejoin="round"
       id="path242" />
    <path
       d="m 64,543 v -1 c 0,-2.209 -1.7909,-4 -4,-4 h -4 m 0,0 3,3 m -3,-3 3,-3 m 9,14 v -16 c 0,-1.105 -0.8954,-2 -2,-2 H 54 c -1.1046,0 -2,0.895 -2,2 v 16 l 4,-2 4,2 4,-2 z"
       stroke="#111827"
       stroke-width="2"
       stroke-linecap="round"
       stroke-linejoin="round"
       id="path244" />
    <path
       d="m 117,538 v 1 c 0.552,0 1,-0.448 1,-1 z m 0,4 h 1 c 0,-0.552 -0.448,-1 -1,-1 z m -18,0 v -1 c -0.5523,0 -1,0.448 -1,1 z m 0,-4 h -1 c 0,0.552 0.4477,1 1,1 z m 2,-6 c -1.6569,0 -3,1.343 -3,3 h 2 c 0,-0.552 0.448,-1 1,-1 z m 14,0 h -14 v 2 h 14 z m 3,3 c 0,-1.657 -1.343,-3 -3,-3 v 2 c 0.552,0 1,0.448 1,1 z m 0,3 v -3 h -2 v 3 z m -2,2 c 0,-0.552 0.448,-1 1,-1 v -2 c -1.657,0 -3,1.343 -3,3 z m 1,1 c -0.552,0 -1,-0.448 -1,-1 h -2 c 0,1.657 1.343,3 3,3 z m 1,4 v -3 h -2 v 3 z m -3,3 c 1.657,0 3,-1.343 3,-3 h -2 c 0,0.552 -0.448,1 -1,1 z m -14,0 h 14 v -2 h -14 z m -3,-3 c 0,1.657 1.3431,3 3,3 v -2 c -0.552,0 -1,-0.448 -1,-1 z m 0,-3 v 3 h 2 v -3 z m 2,-2 c 0,0.552 -0.4477,1 -1,1 v 2 c 1.657,0 3,-1.343 3,-3 z m -1,-1 c 0.5523,0 1,0.448 1,1 h 2 c 0,-1.657 -1.343,-3 -3,-3 z m -1,-4 v 3 h 2 v -3 z"
       fill="#111827"
       id="path246" />
    <path
       d="m 111,533 v 2"
       stroke="#111827"
       stroke-width="2"
       stroke-linecap="round"
       id="path248" />
    <path
       d="m 111,539 v 2"
       stroke="#111827"
       stroke-width="2"
       stroke-linecap="round"
       stroke-linejoin="round"
       id="path250" />
    <path
       d="m 111,545 v 2"
       stroke="#111827"
       stroke-width="2"
       stroke-linecap="round"
       stroke-linejoin="round"
       id="path252" />
    <path
       d="m 152,539 v -4 c 0,-2.209 1.791,-4 4,-4 2.209,0 4,1.791 4,4 m -4,8 v 2 m -6,4 h 12 c 1.105,0 2,-0.895 2,-2 v -6 c 0,-1.105 -0.895,-2 -2,-2 h -12 c -1.105,0 -2,0.895 -2,2 v 6 c 0,1.105 0.895,2 2,2 z"
       stroke="#111827"
       stroke-width="2"
       stroke-linecap="round"
       id="path254" />
    <path
       d="m 200,540 h 0.01 m 3.99,0 h 0.01 m 3.99,0 h 0.01 m 4.99,0 c 0,4.971 -4.029,9 -9,9 -4.971,0 -9,-4.029 -9,-9 0,-4.971 4.029,-9 9,-9 4.971,0 9,4.029 9,9 z"
       stroke="#111827"
       stroke-width="2"
       stroke-linecap="round"
       stroke-linejoin="round"
       id="path256" />
    <path
       d="m 247,548 4,-16 m 2,16 4,-16 m -11,5 h 14 m -16,6 h 14"
       stroke="#111827"
       stroke-width="2"
       stroke-linecap="round"
       stroke-linejoin="round"
       id="path258" />
    <path
       d="m 301,532 c 0,-0.552 -0.448,-1 -1,-1 -0.552,0 -1,0.448 -1,1 z m -2,1 c 0,0.552 0.448,1 1,1 0.552,0 1,-0.448 1,-1 z m 7,10 c -0.552,0 -1,0.448 -1,1 0,0.552 0.448,1 1,1 z m 2,2 c 0.552,0 1,-0.448 1,-1 0,-0.552 -0.448,-1 -1,-1 z m -8,-1 v -1 c -0.552,0 -1,0.448 -1,1 z m 2,1 c 0.552,0 1,-0.448 1,-1 0,-0.552 -0.448,-1 -1,-1 z m -3,3 c 0,0.552 0.448,1 1,1 0.552,0 1,-0.448 1,-1 z m 2,-11 c 0,-0.552 -0.448,-1 -1,-1 -0.552,0 -1,0.448 -1,1 z m -1,3 h -1 c 0,0.552 0.448,1 1,1 z m 4,7 c -0.552,0 -1,0.448 -1,1 0,0.552 0.448,1 1,1 z m 4,2 c 0.552,0 1,-0.448 1,-1 0,-0.552 -0.448,-1 -1,-1 z m -16,-10 c -0.552,0 -1,0.448 -1,1 0,0.552 0.448,1 1,1 z m 4,2 c 0.552,0 1,-0.448 1,-1 0,-0.552 -0.448,-1 -1,-1 z m 4.01,0 c 0.552,0 1,-0.448 1,-1 0,-0.552 -0.448,-1 -1,-1 z m 4,0 c 0.552,0 1,-0.448 1,-1 0,-0.552 -0.448,-1 -1,-1 z m 3.99,-2 c -0.552,0 -1,0.448 -1,1 0,0.552 0.448,1 1,1 z m 0.01,2 c 0.552,0 1,-0.448 1,-1 0,-0.552 -0.448,-1 -1,-1 z M 293,533 h 2 v -2 h -2 z m 2,0 v 2 h 2 v -2 z m 0,2 h -2 v 2 h 2 z m -2,0 v -2 h -2 v 2 z m 0,0 h -2 c 0,1.105 0.895,2 2,2 z m 2,0 v 2 c 1.105,0 2,-0.895 2,-2 z m 0,-2 h 2 c 0,-1.105 -0.895,-2 -2,-2 z m -2,-2 c -1.105,0 -2,0.895 -2,2 h 2 z m 12,2 h 2 v -2 h -2 z m 2,0 v 2 h 2 v -2 z m 0,2 h -2 v 2 h 2 z m -2,0 v -2 h -2 v 2 z m 0,0 h -2 c 0,1.105 0.895,2 2,2 z m 2,0 v 2 c 1.105,0 2,-0.895 2,-2 z m 0,-2 h 2 c 0,-1.105 -0.895,-2 -2,-2 z m -2,-2 c -1.105,0 -2,0.895 -2,2 h 2 z m -12,14 h 2 v -2 h -2 z m 2,0 v 2 h 2 v -2 z m 0,2 h -2 v 2 h 2 z m -2,0 v -2 h -2 v 2 z m 0,0 h -2 c 0,1.105 0.895,2 2,2 z m 2,0 v 2 c 1.105,0 2,-0.895 2,-2 z m 0,-2 h 2 c 0,-1.105 -0.895,-2 -2,-2 z m -2,-2 c -1.105,0 -2,0.895 -2,2 h 2 z m 6,-11 v 1 h 2 v -1 z m 7,13 h 2 v -2 h -2 z m -6,0 h 2 v -2 h -2 z m -1,-1 v 4 h 2 v -4 z m 0,-7 v 3 h 2 v -3 z m 5,12 h 4 v -2 h -4 z m -12,-8 h 4 v -2 h -4 z m 8,0 h 0.01 v -2 H 300 Z m 8,0 h 0.01 v -2 H 308 Z m -8,0 h 4.01 v -2 H 300 Z"
       fill="#111827"
       id="path260" />
    <path
       d="m 345.707,541.293 c -0.39,-0.391 -1.024,-0.391 -1.414,0 -0.391,0.39 -0.391,1.024 0,1.414 z M 347,544 l -0.707,0.707 c 0.39,0.391 1.024,0.391 1.414,0 z m 4.707,-3.293 c 0.391,-0.39 0.391,-1.024 0,-1.414 -0.39,-0.391 -1.024,-0.391 -1.414,0 z M 354,535 v 12 h 2 v -12 z m -1,13 h -10 v 2 h 10 z m -11,-1 v -12 h -2 v 12 z m 1,-13 h 2 v -2 h -2 z m 8,0 h 2 v -2 h -2 z m -8,14 c -0.552,0 -1,-0.448 -1,-1 h -2 c 0,1.657 1.343,3 3,3 z m 11,-1 c 0,0.552 -0.448,1 -1,1 v 2 c 1.657,0 3,-1.343 3,-3 z m 2,-12 c 0,-1.657 -1.343,-3 -3,-3 v 2 c 0.552,0 1,0.448 1,1 z m -14,0 c 0,-0.552 0.448,-1 1,-1 v -2 c -1.657,0 -3,1.343 -3,3 z m 2.293,7.707 2,2 1.414,-1.414 -2,-2 z m 3.414,2 4,-4 -1.414,-1.414 -4,4 z M 347,532 h 2 v -2 h -2 z m 2,2 h -2 v 2 h 2 z m -2,0 c -0.552,0 -1,-0.448 -1,-1 h -2 c 0,1.657 1.343,3 3,3 z m 3,-1 c 0,0.552 -0.448,1 -1,1 v 2 c 1.657,0 3,-1.343 3,-3 z m -1,-1 c 0.552,0 1,0.448 1,1 h 2 c 0,-1.657 -1.343,-3 -3,-3 z m -2,-2 c -1.657,0 -3,1.343 -3,3 h 2 c 0,-0.552 0.448,-1 1,-1 z"
       fill="#111827"
       id="path262" />
    <path
       d="m 393,533 h -2 c -1.105,0 -2,0.895 -2,2 v 12 c 0,1.105 0.895,2 2,2 h 10 c 1.105,0 2,-0.895 2,-2 v -12 c 0,-1.105 -0.895,-2 -2,-2 h -2 m -6,0 c 0,1.105 0.895,2 2,2 h 2 c 1.105,0 2,-0.895 2,-2 m -6,0 c 0,-1.105 0.895,-2 2,-2 h 2 c 1.105,0 2,0.895 2,2 m -3,7 h 3 m -3,4 h 3 m -6,-4 h 0.01 m -0.01,4 h 0.01"
       stroke="#111827"
       stroke-width="2"
       stroke-linecap="round"
       id="path264" />
    <path
       d="m 441,533 h -2 c -1.105,0 -2,0.895 -2,2 v 12 c 0,1.105 0.895,2 2,2 h 10 c 1.105,0 2,-0.895 2,-2 v -12 c 0,-1.105 -0.895,-2 -2,-2 h -2 m -6,0 c 0,1.105 0.895,2 2,2 h 2 c 1.105,0 2,-0.895 2,-2 m -6,0 c 0,-1.105 0.895,-2 2,-2 h 2 c 1.105,0 2,0.895 2,2"
       stroke="#111827"
       stroke-width="2"
       stroke-linecap="round"
       id="path266" />
    <path
       d="M 10,582 H 6 c -1.10457,0 -2,0.895 -2,2 v 10 c 0,1.105 0.89543,2 2,2 h 10 c 1.1046,0 2,-0.895 2,-2 v -4 m -4,-10 h 6 m 0,0 v 6 m 0,-6 -10,10"
       stroke="#111827"
       stroke-width="2"
       stroke-linecap="round"
       stroke-linejoin="round"
       id="path268" />
    <path
       d="m 60,579 v 1 m 0,16 v 1 m 9,-9 h -1 m -16,0 h -1 m 15.364,6.364 -0.7071,-0.707 M 54.3431,582.343 53.636,581.636 m 12.728,0 -0.7071,0.707 m -11.3137,11.314 -0.7071,0.707 M 64,588 c 0,2.209 -1.7909,4 -4,4 -2.2091,0 -4,-1.791 -4,-4 0,-2.209 1.7909,-4 4,-4 2.2091,0 4,1.791 4,4 z"
       stroke="#111827"
       stroke-width="2"
       stroke-linecap="round"
       stroke-linejoin="round"
       id="path270" />
    <path
       d="m 116.354,591.354 0.928,0.373 c 0.149,-0.371 0.063,-0.796 -0.221,-1.08 -0.283,-0.283 -0.708,-0.37 -1.08,-0.221 z m -11.708,-11.708 0.928,0.373 c 0.149,-0.372 0.062,-0.797 -0.221,-1.08 -0.283,-0.283 -0.708,-0.37 -1.08,-0.221 z m 11.335,10.78 C 115.061,590.796 114.056,591 113,591 v 2 c 1.315,0 2.574,-0.254 3.727,-0.718 z M 113,591 c -4.418,0 -8,-3.582 -8,-8 h -2 c 0,5.523 4.477,10 10,10 z m -8,-8 c 0,-1.055 0.204,-2.061 0.574,-2.981 l -1.856,-0.746 C 103.255,580.426 103,581.685 103,583 Z m -5,5 c 0,-3.363 2.075,-6.243 5.019,-7.426 l -0.746,-1.856 C 100.598,580.195 98,583.793 98,588 Z m 8,8 c -4.418,0 -8,-3.582 -8,-8 h -2 c 0,5.523 4.477,10 10,10 z m 7.426,-5.019 C 114.243,593.925 111.363,596 108,596 v 2 c 4.207,0 7.805,-2.598 9.282,-6.273 z"
       fill="#111827"
       id="path272" />
    <path
       d="m 152,581 h -2 c -1.105,0 -2,0.895 -2,2 v 12 c 0,1.105 0.895,2 2,2 h 10 c 1.105,0 2,-0.895 2,-2 v -1 m -10,-13 c 0,1.105 0.895,2 2,2 h 2 c 1.105,0 2,-0.895 2,-2 m -6,0 c 0,-1.105 0.895,-2 2,-2 h 2 c 1.105,0 2,0.895 2,2 m 0,0 h 2 c 1.105,0 2,0.895 2,2 v 3 m 2,4 h -10 m 0,0 3,-3 m -3,3 3,3"
       stroke="#111827"
       stroke-width="2"
       stroke-linecap="round"
       stroke-linejoin="round"
       id="path274" />
    <path
       d="m 199,584 h 10 m -10,4 h 4 m 1,8 -4,-4 h -3 c -1.105,0 -2,-0.895 -2,-2 v -8 c 0,-1.105 0.895,-2 2,-2 h 14 c 1.105,0 2,0.895 2,2 v 8 c 0,1.105 -0.895,2 -2,2 h -3 z"
       stroke="#111827"
       stroke-width="2"
       stroke-linecap="round"
       stroke-linejoin="round"
       id="path276" />
    <path
       d="m 243,597 v -4 m 0,0 v -12 c 0,-1.105 0.895,-2 2,-2 h 6.5 l 1,1 h 8.5 l -3,6 3,6 h -8.5 l -1,-1 H 245 c -1.105,0 -2,0.895 -2,2 z m 9,-13.5 v 5.5"
       stroke="#111827"
       stroke-width="2"
       stroke-linecap="round"
       stroke-linejoin="round"
       id="path278" />
    <path
       d="m 307,587 h -14 m 14,0 c 1.105,0 2,0.895 2,2 v 6 c 0,1.105 -0.895,2 -2,2 h -14 c -1.105,0 -2,-0.895 -2,-2 v -6 c 0,-1.105 0.895,-2 2,-2 m 14,0 v -2 c 0,-1.105 -0.895,-2 -2,-2 m -12,4 v -2 c 0,-1.105 0.895,-2 2,-2 m 0,0 v -2 c 0,-1.105 0.895,-2 2,-2 h 6 c 1.105,0 2,0.895 2,2 v 2 m -10,0 h 10"
       stroke="#111827"
       stroke-width="2"
       stroke-linecap="round"
       stroke-linejoin="round"
       id="path280" />
    <path
       d="m 348,582.253 v 13 m 0,-13 c -1.168,-0.776 -2.754,-1.253 -4.5,-1.253 -1.746,0 -3.332,0.477 -4.5,1.253 v 13 c 1.168,-0.776 2.754,-1.253 4.5,-1.253 1.746,0 3.332,0.477 4.5,1.253 m 0,-13 c 1.168,-0.776 2.754,-1.253 4.5,-1.253 1.746,0 3.332,0.477 4.5,1.253 v 13 c -1.168,-0.776 -2.754,-1.253 -4.5,-1.253 -1.746,0 -3.332,0.477 -4.5,1.253"
       stroke="#111827"
       stroke-width="2"
       stroke-linecap="round"
       stroke-linejoin="round"
       id="path282" />
    <path
       d="m 394,596 4,-16 m 4,4 4,4 -4,4 m -12,0 -4,-4 4,-4"
       stroke="#111827"
       stroke-width="2"
       stroke-linecap="round"
       stroke-linejoin="round"
       id="path284" />
    <path
       d="m 445,586 v -7 l -9,11 h 7 v 7 l 9,-11 z"
       stroke="#111827"
       stroke-width="2"
       stroke-linecap="round"
       stroke-linejoin="round"
       id="path286" />
    <path
       d="m 3,631 v 10 c 0,1.105 0.89543,2 2,2 h 14 c 1.1046,0 2,-0.895 2,-2 v -8 c 0,-1.105 -0.8954,-2 -2,-2 h -6 l -2,-2 H 5 c -1.10457,0 -2,0.895 -2,2 z"
       stroke="#111827"
       stroke-width="2"
       stroke-linecap="round"
       stroke-linejoin="round"
       id="path288" />
    <path
       d="m 53,627 v 4 m -2,-2 h 4 m -1,12 v 4 m -2,-2 h 4 m 5,-16 2.2857,6.857 L 69,636 63.2857,638.143 61,645 58.7143,638.143 53,636 l 5.7143,-2.143 z"
       stroke="#111827"
       stroke-width="2"
       stroke-linecap="round"
       stroke-linejoin="round"
       id="path290" />
    <path
       d="m 109,631 c 0,2.209 -1.791,4 -4,4 -2.209,0 -4,-1.791 -4,-4 0,-2.209 1.791,-4 4,-4 2.209,0 4,1.791 4,4 z"
       stroke="#111827"
       stroke-width="2"
       stroke-linecap="round"
       stroke-linejoin="round"
       id="path292" />
    <path
       d="m 105,638 c -3.314,0 -6,2.686 -6,6 v 1 h 12 v -1 c 0,-3.314 -2.686,-6 -6,-6 z"
       stroke="#111827"
       stroke-width="2"
       stroke-linecap="round"
       stroke-linejoin="round"
       id="path294" />
    <path
       d="m 117,636 h -6"
       stroke="#111827"
       stroke-width="2"
       stroke-linecap="round"
       stroke-linejoin="round"
       id="path296" />
    <path
       d="m 152,631 4,-4 m 0,0 4,4 m -4,-4 v 18"
       stroke="#111827"
       stroke-width="2"
       stroke-linecap="round"
       stroke-linejoin="round"
       id="path298" />
    <path
       d="m 209,632 4,4 m 0,0 -4,4 m 4,-4 h -18"
       stroke="#111827"
       stroke-width="2"
       stroke-linecap="round"
       stroke-linejoin="round"
       id="path300" />
    <path
       d="m 256,641 -4,4 m 0,0 -4,-4 m 4,4 v -18"
       stroke="#111827"
       stroke-width="2"
       stroke-linecap="round"
       stroke-linejoin="round"
       id="path302" />
    <path
       d="m 295,640 -4,-4 m 0,0 4,-4 m -4,4 h 18"
       stroke="#111827"
       stroke-width="2"
       stroke-linecap="round"
       stroke-linejoin="round"
       id="path304" />
    <path
       d="m 340,629 c 0,-0.552 0.448,-1 1,-1 h 14 c 0.552,0 1,0.448 1,1 v 2 c 0,0.552 -0.448,1 -1,1 h -14 c -0.552,0 -1,-0.448 -1,-1 z"
       stroke="#111827"
       stroke-width="2"
       stroke-linecap="round"
       stroke-linejoin="round"
       id="path306" />
    <path
       d="m 340,637 c 0,-0.552 0.448,-1 1,-1 h 6 c 0.552,0 1,0.448 1,1 v 6 c 0,0.552 -0.448,1 -1,1 h -6 c -0.552,0 -1,-0.448 -1,-1 z"
       stroke="#111827"
       stroke-width="2"
       stroke-linecap="round"
       stroke-linejoin="round"
       id="path308" />
    <path
       d="m 352,637 c 0,-0.552 0.448,-1 1,-1 h 2 c 0.552,0 1,0.448 1,1 v 6 c 0,0.552 -0.448,1 -1,1 h -2 c -0.552,0 -1,-0.448 -1,-1 z"
       stroke="#111827"
       stroke-width="2"
       stroke-linecap="round"
       stroke-linejoin="round"
       id="path310" />
    <path
       d="m 387,634 h 10 c 4.418,0 8,3.582 8,8 v 2 m -18,-10 6,6 m -6,-6 6,-6"
       stroke="#111827"
       stroke-width="2"
       stroke-linecap="round"
       stroke-linejoin="round"
       id="path312" />
    <path
       d="m 441.664,641 h 4.672 M 444,627 v 1 m 6.364,1.636 -0.707,0.707 M 453,636 h -1 m -16,0 h -1 m 3.343,-5.657 -0.707,-0.707 m 2.828,9.9 c -1.952,-1.953 -1.952,-5.119 0,-7.072 1.953,-1.952 5.119,-1.952 7.072,0 1.952,1.953 1.952,5.119 0,7.072 l -0.548,0.547 c -0.632,0.633 -0.988,1.491 -0.988,2.386 V 643 c 0,1.105 -0.895,2 -2,2 -1.105,0 -2,-0.895 -2,-2 v -0.531 c 0,-0.895 -0.356,-1.753 -0.988,-2.386 z"
       stroke="#111827"
       stroke-width="2"
       stroke-linecap="round"
       stroke-linejoin="round"
       id="path314" />
    <path
       d="m 8,682 h 0.01 m 3.99,0 h 0.01 m 3.99,0 h 0.01 M 9,688 H 5 c -1.10457,0 -2,-0.895 -2,-2 v -8 c 0,-1.105 0.89543,-2 2,-2 h 14 c 1.1046,0 2,0.895 2,2 v 8 c 0,1.105 -0.8954,2 -2,2 h -5 l -5,5 z"
       stroke="#111827"
       stroke-width="2"
       stroke-linecap="round"
       stroke-linejoin="round"
       id="path316" />
    <path
       d="m 57,689 v -2 m 3,2 v -4 m 3,4 v -6 m 2,10 H 55 c -1.1046,0 -2,-0.895 -2,-2 v -14 c 0,-1.105 0.8954,-2 2,-2 h 5.5858 c 0.2652,0 0.5196,0.105 0.7071,0.293 l 5.4142,5.414 C 66.8946,680.895 67,681.149 67,681.414 V 691 c 0,1.105 -0.8954,2 -2,2 z"
       stroke="#111827"
       stroke-width="2"
       stroke-linecap="round"
       stroke-linejoin="round"
       id="path318" />
    <path
       d="m 107,688 -4,-4 m 0,0 4,-4 m -4,4 h 14 m -5,4 v 1 c 0,1.657 -1.343,3 -3,3 h -7 c -1.657,0 -3,-1.343 -3,-3 v -10 c 0,-1.657 1.343,-3 3,-3 h 7 c 1.657,0 3,1.343 3,3 v 1"
       stroke="#111827"
       stroke-width="2"
       stroke-linecap="round"
       stroke-linejoin="round"
       id="path320" />
    <path
       d="m 159,679 c 1.105,0 2,0.895 2,2 m 4,0 c 0,3.314 -2.686,6 -6,6 -0.606,0 -1.191,-0.09 -1.743,-0.257 L 155,689 h -2 v 2 h -2 v 2 h -3 c -0.552,0 -1,-0.448 -1,-1 v -2.586 c 0,-0.265 0.105,-0.519 0.293,-0.707 l 5.964,-5.964 C 153.09,682.191 153,681.606 153,681 c 0,-3.314 2.686,-6 6,-6 3.314,0 6,2.686 6,6 z"
       stroke="#111827"
       stroke-width="2"
       stroke-linecap="round"
       stroke-linejoin="round"
       id="path322" />
    <path
       d="m 210.364,690.364 c 3.515,-3.515 3.515,-9.213 0,-12.728 -3.515,-3.515 -9.213,-3.515 -12.728,0 m 12.728,12.728 c -3.515,3.515 -9.213,3.515 -12.728,0 -3.515,-3.515 -3.515,-9.213 0,-12.728 m 12.728,12.728 -12.728,-12.728"
       stroke="#111827"
       stroke-width="2"
       stroke-linecap="round"
       stroke-linejoin="round"
       id="path324" />
    <path
       d="m 243,675 h 2 l 0.4,2 m 1.6,8 h 10 l 4,-8 h -15.6 m 1.6,8 -1.6,-8 m 1.6,8 -2.293,2.293 c -0.63,0.63 -0.184,1.707 0.707,1.707 H 257 m 0,0 c -1.105,0 -2,0.895 -2,2 0,1.105 0.895,2 2,2 1.105,0 2,-0.895 2,-2 0,-1.105 -0.895,-2 -2,-2 z m -8,2 c 0,1.105 -0.895,2 -2,2 -1.105,0 -2,-0.895 -2,-2 0,-1.105 0.895,-2 2,-2 1.105,0 2,0.895 2,2 z"
       stroke="#111827"
       stroke-width="2"
       stroke-linecap="round"
       stroke-linejoin="round"
       id="path326" />
    <path
       d="m 303,687 -2,5 -4,-11 11,4 z m 0,0 5,5 m -12.812,-17.761 0.777,2.897 m -2.829,2.829 -2.898,-0.777 m 11.712,-3.138 -2.122,2.122 m -5.656,5.656 -2.122,2.122"
       stroke="#111827"
       stroke-width="2"
       stroke-linecap="round"
       stroke-linejoin="round"
       id="path328" />
    <path
       d="m 355,683 c 0,3.866 -3.134,7 -7,7 m 0,0 c -3.866,0 -7,-3.134 -7,-7 m 7,7 v 4 m 0,0 h -4 m 4,0 h 4 m -4,-8 c -1.657,0 -3,-1.343 -3,-3 v -6 c 0,-1.657 1.343,-3 3,-3 1.657,0 3,1.343 3,3 v 6 c 0,1.657 -1.343,3 -3,3 z"
       stroke="#111827"
       stroke-width="2"
       stroke-linecap="round"
       stroke-linejoin="round"
       id="path330" />
    <path
       d="m 395,677.882 v 13.358 c 0,0.972 -0.788,1.76 -1.76,1.76 -0.744,0 -1.407,-0.468 -1.657,-1.168 l -2.147,-6.149 M 402,685 c 1.657,0 3,-1.343 3,-3 0,-1.657 -1.343,-3 -3,-3 m -12.564,6.683 C 388.004,685.074 387,683.654 387,682 c 0,-2.209 1.791,-4 4,-4 h 1.832 c 4.101,0 7.625,-1.234 9.168,-3 v 14 c -1.543,-1.766 -5.067,-3 -9.168,-3 H 391 c -0.555,0 -1.083,-0.113 -1.564,-0.317 z"
       stroke="#111827"
       stroke-width="2"
       stroke-linecap="round"
       stroke-linejoin="round"
       id="path332" />
    <path
       d="m 441,684 2,2 4,-4 m -7.165,-5.303 c 0.717,-0.057 1.398,-0.339 1.946,-0.806 1.279,-1.09 3.159,-1.09 4.438,0 0.548,0.467 1.229,0.749 1.946,0.806 1.675,0.134 3.004,1.463 3.138,3.138 0.057,0.717 0.339,1.399 0.806,1.946 1.09,1.279 1.09,3.159 0,4.438 -0.467,0.548 -0.749,1.229 -0.806,1.946 -0.134,1.675 -1.463,3.004 -3.138,3.138 -0.717,0.057 -1.398,0.339 -1.946,0.806 -1.279,1.09 -3.159,1.09 -4.438,0 -0.548,-0.467 -1.229,-0.749 -1.946,-0.806 -1.675,-0.134 -3.004,-1.463 -3.138,-3.138 -0.057,-0.717 -0.339,-1.398 -0.806,-1.946 -1.09,-1.279 -1.09,-3.159 0,-4.438 0.467,-0.547 0.749,-1.229 0.806,-1.946 0.134,-1.675 1.463,-3.004 3.138,-3.138 z"
       stroke="#111827"
       stroke-width="2"
       stroke-linecap="round"
       stroke-linejoin="round"
       id="path334" />
    <path
       d="M 9.75,737 9,740 8,741 h 8 l -1,-1 -0.75,-3 M 3,733 h 18 m -16,4 h 14 c 1.1046,0 2,-0.895 2,-2 v -10 c 0,-1.105 -0.8954,-2 -2,-2 H 5 c -1.10457,0 -2,0.895 -2,2 v 10 c 0,1.105 0.89543,2 2,2 z"
       stroke="#111827"
       stroke-width="2"
       stroke-linecap="round"
       stroke-linejoin="round"
       id="path336" />
    <path
       d="m 65,728 h 2 c 1.1046,0 2,0.895 2,2 v 6 c 0,1.105 -0.8954,2 -2,2 h -2 v 4 l -4,-4 h -4 c -0.5523,0 -1.0523,-0.224 -1.4142,-0.586 m 0,0 L 59,734 h 4 c 1.1046,0 2,-0.895 2,-2 v -6 c 0,-1.105 -0.8954,-2 -2,-2 H 53 c -1.1046,0 -2,0.895 -2,2 v 6 c 0,1.105 0.8954,2 2,2 h 2 v 4 z"
       stroke="#111827"
       stroke-width="2"
       stroke-linecap="round"
       stroke-linejoin="round"
       id="path338" />
    <path
       d="m 116,732 c 0,4.418 -3.582,8 -8,8 v 2 c 5.523,0 10,-4.477 10,-10 z m -8,8 c -4.418,0 -8,-3.582 -8,-8 h -2 c 0,5.523 4.477,10 10,10 z m -8,-8 c 0,-4.418 3.582,-8 8,-8 v -2 c -5.523,0 -10,4.477 -10,10 z m 8,-8 c 4.418,0 8,3.582 8,8 h 2 c 0,-5.523 -4.477,-10 -10,-10 z m 3,8 c 0,1.657 -1.343,3 -3,3 v 2 c 2.761,0 5,-2.239 5,-5 z m -3,3 c -1.657,0 -3,-1.343 -3,-3 h -2 c 0,2.761 2.239,5 5,5 z m -3,-3 c 0,-1.657 1.343,-3 3,-3 v -2 c -2.761,0 -5,2.239 -5,5 z m 3,-3 c 1.657,0 3,1.343 3,3 h 2 c 0,-2.761 -2.239,-5 -5,-5 z m 5.657,-4.071 -3.536,3.535 1.415,1.415 3.535,-3.536 z m -3.536,10.607 3.536,3.535 1.414,-1.414 -3.535,-3.536 z m -4.242,-7.072 -3.536,-3.535 -1.414,1.414 3.535,3.536 z m -1.415,5.657 -3.535,3.536 1.414,1.414 3.536,-3.535 z"
       fill="#111827"
       id="path340" />
    <path
       d="m 163,740 h -14 c -1.105,0 -2,-0.895 -2,-2 v -12 c 0,-1.105 0.895,-2 2,-2 h 10 c 1.105,0 2,0.895 2,2 v 1 m 2,13 c -1.105,0 -2,-0.895 -2,-2 v -11 m 2,13 c 1.105,0 2,-0.895 2,-2 v -9 c 0,-1.105 -0.895,-2 -2,-2 h -2 m -4,-3 h -4 m -2,12 h 6 m -6,-8 h 6 v 4 h -6 z"
       stroke="#111827"
       stroke-width="2"
       stroke-linecap="round"
       stroke-linejoin="round"
       id="path342" />
    <path
       d="m 208,724 v 12 l -4,-2 -4,2 v -12 m -2,16 h 12 c 1.105,0 2,-0.895 2,-2 v -12 c 0,-1.105 -0.895,-2 -2,-2 h -12 c -1.105,0 -2,0.895 -2,2 v 12 c 0,1.105 0.895,2 2,2 z"
       stroke="#111827"
       stroke-width="2"
       stroke-linecap="round"
       stroke-linejoin="round"
       id="path344" />
    <path
       d="m 257,734 v 6 m -3,-3 h 6 m -14,-7 h 2 c 1.105,0 2,-0.895 2,-2 v -2 c 0,-1.105 -0.895,-2 -2,-2 h -2 c -1.105,0 -2,0.895 -2,2 v 2 c 0,1.105 0.895,2 2,2 z m 10,0 h 2 c 1.105,0 2,-0.895 2,-2 v -2 c 0,-1.105 -0.895,-2 -2,-2 h -2 c -1.105,0 -2,0.895 -2,2 v 2 c 0,1.105 0.895,2 2,2 z m -10,10 h 2 c 1.105,0 2,-0.895 2,-2 v -2 c 0,-1.105 -0.895,-2 -2,-2 h -2 c -1.105,0 -2,0.895 -2,2 v 2 c 0,1.105 0.895,2 2,2 z"
       stroke="#111827"
       stroke-width="2"
       stroke-linecap="round"
       stroke-linejoin="round"
       id="path346" />
    <path
       d="m 296,734 v 3 m 4,-3 v 3 m 4,-3 v 3 m -13,4 h 18 m -18,-11 h 18 m -18,-3 9,-4 9,4 m -17,3 h 16 v 11 h -16 z"
       stroke="#111827"
       stroke-width="2"
       stroke-linecap="round"
       stroke-linejoin="round"
       id="path348" />
    <path
       d="m 350.752,731.168 -3.197,-2.132 C 346.89,728.593 346,729.07 346,729.869 v 4.262 c 0,0.799 0.89,1.276 1.555,0.833 l 3.197,-2.132 c 0.594,-0.396 0.594,-1.268 0,-1.664 z"
       stroke="#111827"
       stroke-width="2"
       stroke-linecap="round"
       stroke-linejoin="round"
       id="path350" />
    <path
       d="m 357,732 c 0,4.971 -4.029,9 -9,9 -4.971,0 -9,-4.029 -9,-9 0,-4.971 4.029,-9 9,-9 4.971,0 9,4.029 9,9 z"
       stroke="#111827"
       stroke-width="2"
       stroke-linecap="round"
       stroke-linejoin="round"
       id="path352" />
    <path
       d="m 394,729 v 6 m 4,-6 v 6 m 7,-3 c 0,4.971 -4.029,9 -9,9 -4.971,0 -9,-4.029 -9,-9 0,-4.971 4.029,-9 9,-9 4.971,0 9,4.029 9,9 z"
       stroke="#111827"
       stroke-width="2"
       stroke-linecap="round"
       stroke-linejoin="round"
       id="path354" />
    <path
       d="m 453,732 c 0,4.971 -4.029,9 -9,9 -4.971,0 -9,-4.029 -9,-9 0,-4.971 4.029,-9 9,-9 4.971,0 9,4.029 9,9 z"
       stroke="#111827"
       stroke-width="2"
       stroke-linecap="round"
       stroke-linejoin="round"
       id="path356" />
    <path
       d="m 441,730 c 0,-0.552 0.448,-1 1,-1 h 4 c 0.552,0 1,0.448 1,1 v 4 c 0,0.552 -0.448,1 -1,1 h -4 c -0.552,0 -1,-0.448 -1,-1 z"
       stroke="#111827"
       stroke-width="2"
       stroke-linecap="round"
       stroke-linejoin="round"
       id="path358" />
    <g
       clip-path="url(#clip1_756_23769)"
       id="g362">
      <path
         d="m 11.049,770.927 c 0.2993,-0.922 1.6027,-0.922 1.902,0 l 1.5189,4.674 c 0.1339,0.412 0.5178,0.69 0.951,0.69 l 4.9145,10e-4 c 0.9687,0 1.3714,1.239 0.5878,1.809 l -3.9758,2.888 c -0.3505,0.255 -0.4971,0.706 -0.3633,1.118 l 1.5185,4.674 c 0.2993,0.922 -0.7551,1.688 -1.5388,1.119 l -3.976,-2.889 c -0.3505,-0.255 -0.8251,-0.255 -1.1756,0 L 7.43622,787.9 c -0.7837,0.569 -1.83812,-0.197 -1.53882,-1.119 l 1.51849,-4.674 c 0.13385,-0.412 -0.0128,-0.863 -0.36326,-1.118 l -3.9758,-2.888 c -0.78366,-0.57 -0.38091,-1.809 0.58778,-1.809 l 4.9145,-10e-4 c 0.4332,0 0.81712,-0.278 0.951,-0.69 z"
         stroke="#111827"
         stroke-width="2"
         id="path360" />
    </g>
    <path
       d="m 56,777 3,3 -3,3 m 5,0 h 3 m -11,5 h 14 c 1.1046,0 2,-0.895 2,-2 v -12 c 0,-1.105 -0.8954,-2 -2,-2 H 53 c -1.1046,0 -2,0.895 -2,2 v 12 c 0,1.105 0.8954,2 2,2 z"
       stroke="#111827"
       stroke-width="2"
       stroke-linecap="round"
       stroke-linejoin="round"
       id="path364" />
    <path
       d="m 112,776 v 8 m -4,-5 v 5 m -4,-2 v 2 m -2,4 h 12 c 1.105,0 2,-0.895 2,-2 v -12 c 0,-1.105 -0.895,-2 -2,-2 h -12 c -1.105,0 -2,0.895 -2,2 v 12 c 0,1.105 0.895,2 2,2 z"
       stroke="#111827"
       stroke-width="2"
       stroke-linecap="round"
       stroke-linejoin="round"
       id="path366" />
    <path
       d="m 147,771 3.589,3.589 M 165,789 l -3.589,-3.589 m -3.536,1.414 C 157.268,786.94 156.641,787 156,787 c -4.477,0 -8.267,-2.943 -9.542,-7 0.347,-1.105 0.881,-2.126 1.563,-3.029 m 5.858,0.908 C 154.422,777.336 155.172,777 156,777 c 1.657,0 3,1.343 3,3 0,0.828 -0.336,1.578 -0.879,2.121 m -4.242,-4.242 4.242,4.242 m -4.242,-4.242 -3.29,-3.29 m 7.532,7.532 -7.532,-7.532 m 7.532,7.532 3.29,3.29 m -10.822,-10.822 c 1.56,-1.005 3.418,-1.589 5.411,-1.589 4.478,0 8.268,2.943 9.543,7 -0.707,2.251 -2.188,4.159 -4.132,5.411"
       stroke="#111827"
       stroke-width="2"
       stroke-linecap="round"
       stroke-linejoin="round"
       id="path368" />
    <path
       d="m 201,787 v -6 c 0,-1.105 -0.895,-2 -2,-2 h -2 c -1.105,0 -2,0.895 -2,2 v 6 c 0,1.105 0.895,2 2,2 h 2 c 1.105,0 2,-0.895 2,-2 z m 0,0 v -10 c 0,-1.105 0.895,-2 2,-2 h 2 c 1.105,0 2,0.895 2,2 v 10 m -6,0 c 0,1.105 0.895,2 2,2 h 2 c 1.105,0 2,-0.895 2,-2 m 0,0 v -14 c 0,-1.105 0.895,-2 2,-2 h 2 c 1.105,0 2,0.895 2,2 v 14 c 0,1.105 -0.895,2 -2,2 h -2 c -1.105,0 -2,-0.895 -2,-2 z"
       stroke="#111827"
       stroke-width="2"
       stroke-linecap="round"
       stroke-linejoin="round"
       id="path370" />
    <path
       d="m 257.657,786.657 c -3.124,3.124 -8.19,3.124 -11.314,0 C 244.781,785.095 244,783.047 244,781 c 0,-2.047 0.781,-4.095 2.343,-5.657 0,0 0.657,1.657 2.657,2.657 0,-2 0.5,-5 2.986,-7 2.014,2 4.105,2.777 5.671,4.343 1.562,1.562 2.343,3.61 2.343,5.657 0,2.047 -0.781,4.095 -2.343,5.657 z"
       stroke="#111827"
       stroke-width="2"
       stroke-linecap="round"
       stroke-linejoin="round"
       id="path372" />
    <path
       d="m 249.879,784.121 c 1.171,1.172 3.071,1.172 4.242,0 0.586,-0.586 0.879,-1.353 0.879,-2.121 0,-0.768 -0.293,-1.536 -0.879,-2.121 -0.582,-0.582 -1.344,-0.875 -2.106,-0.879 L 251,782 h -2 c 0,0.768 0.293,1.535 0.879,2.121 z"
       stroke="#111827"
       stroke-width="2"
       stroke-linecap="round"
       stroke-linejoin="round"
       id="path374" />
    <path
       d="m 304,779 v -4 c 0,-2.209 -1.791,-4 -4,-4 -2.209,0 -4,1.791 -4,4 v 4 m -3,-2 h 14 l 1,12 h -16 z"
       stroke="#111827"
       stroke-width="2"
       stroke-linecap="round"
       stroke-linejoin="round"
       id="path376" />
    <path
       d="m 350,782 h 4.764 c 1.487,0 2.454,-1.565 1.789,-2.894 l -3.5,-7 C 352.714,771.428 352.021,771 351.264,771 h -4.018 c -0.163,0 -0.326,0.02 -0.485,0.06 L 343,772 m 7,10 v 5 c 0,1.105 -0.895,2 -2,2 h -0.095 c -0.5,0 -0.905,-0.405 -0.905,-0.905 0,-0.714 -0.211,-1.412 -0.608,-2.006 L 343,781 v -9 m 7,10 h -2 m -5,-10 h -2 c -1.105,0 -2,0.895 -2,2 v 6 c 0,1.105 0.895,2 2,2 h 2.5"
       stroke="#111827"
       stroke-width="2"
       stroke-linecap="round"
       stroke-linejoin="round"
       id="path378" />
    <path
       d="m 394,778 h -4.764 c -1.487,0 -2.454,1.565 -1.789,2.894 l 3.5,7 c 0.339,0.678 1.032,1.106 1.789,1.106 h 4.018 c 0.163,0 0.326,-0.02 0.485,-0.06 L 401,788 m -7,-10 v -5 c 0,-1.105 0.895,-2 2,-2 h 0.095 c 0.5,0 0.905,0.405 0.905,0.905 0,0.714 0.211,1.412 0.608,2.006 L 401,779 v 9 m -7,-10 h 2 m 5,10 h 2 c 1.105,0 2,-0.895 2,-2 v -6 c 0,-1.105 -0.895,-2 -2,-2 h -2.5"
       stroke="#111827"
       stroke-width="2"
       stroke-linecap="round"
       stroke-linejoin="round"
       id="path380" />
    <path
       d="m 439,779.5 v 2.5 m 0,-2.5 v -6 c 0,-0.828 0.672,-1.5 1.5,-1.5 0.828,0 1.5,0.672 1.5,1.5 m -3,6 c 0,-0.828 -0.672,-1.5 -1.5,-1.5 -0.828,0 -1.5,0.672 -1.5,1.5 v 2 c 0,4.142 3.358,7.5 7.5,7.5 4.142,0 7.5,-3.358 7.5,-7.5 v -5 c 0,-0.828 -0.672,-1.5 -1.5,-1.5 -0.828,0 -1.5,0.672 -1.5,1.5 m -6,-3 v 5.5 m 0,-5.5 v -1 c 0,-0.828 0.672,-1.5 1.5,-1.5 0.828,0 1.5,0.672 1.5,1.5 v 1 m 0,0 v 5.5 m 0,-5.5 c 0,-0.828 0.672,-1.5 1.5,-1.5 0.828,0 1.5,0.672 1.5,1.5 v 3 m 0,0 v 2.5"
       stroke="#111827"
       stroke-width="2"
       stroke-linecap="round"
       stroke-linejoin="round"
       id="path382" />
    <path
       d="m 4,824 v -4 m 0,0 h 4 m -4,0 5,5 m 11,-1 v -4 m 0,0 h -4 m 4,0 -5,5 m -11,7 v 4 m 0,0 h 4 m -4,0 5,-5 m 11,5 -5,-5 m 5,5 v -4 m 0,4 h -4"
       stroke="#111827"
       stroke-width="2"
       stroke-linecap="round"
       stroke-linejoin="round"
       id="path384" />
    <path
       d="m 52,822 c 0,-1.105 0.8954,-2 2,-2 h 2 c 1.1046,0 2,0.895 2,2 v 2 c 0,1.105 -0.8954,2 -2,2 h -2 c -1.1046,0 -2,-0.895 -2,-2 z"
       stroke="#111827"
       stroke-width="2"
       stroke-linecap="round"
       stroke-linejoin="round"
       id="path386" />
    <path
       d="m 62,822 c 0,-1.105 0.8954,-2 2,-2 h 2 c 1.1046,0 2,0.895 2,2 v 2 c 0,1.105 -0.8954,2 -2,2 h -2 c -1.1046,0 -2,-0.895 -2,-2 z"
       stroke="#111827"
       stroke-width="2"
       stroke-linecap="round"
       stroke-linejoin="round"
       id="path388" />
    <path
       d="m 52,832 c 0,-1.105 0.8954,-2 2,-2 h 2 c 1.1046,0 2,0.895 2,2 v 2 c 0,1.105 -0.8954,2 -2,2 h -2 c -1.1046,0 -2,-0.895 -2,-2 z"
       stroke="#111827"
       stroke-width="2"
       stroke-linecap="round"
       stroke-linejoin="round"
       id="path390" />
    <path
       d="m 62,832 c 0,-1.105 0.8954,-2 2,-2 h 2 c 1.1046,0 2,0.895 2,2 v 2 c 0,1.105 -0.8954,2 -2,2 h -2 c -1.1046,0 -2,-0.895 -2,-2 z"
       stroke="#111827"
       stroke-width="2"
       stroke-linecap="round"
       stroke-linejoin="round"
       id="path392" />
    <path
       d="m 107,820 c 0,-1.105 0.895,-2 2,-2 1.105,0 2,0.895 2,2 v 1 c 0,0.552 0.448,1 1,1 h 3 c 0.552,0 1,0.448 1,1 v 3 c 0,0.552 -0.448,1 -1,1 h -1 c -1.105,0 -2,0.895 -2,2 0,1.105 0.895,2 2,2 h 1 c 0.552,0 1,0.448 1,1 v 3 c 0,0.552 -0.448,1 -1,1 h -3 c -0.552,0 -1,-0.448 -1,-1 v -1 c 0,-1.105 -0.895,-2 -2,-2 -1.105,0 -2,0.895 -2,2 v 1 c 0,0.552 -0.448,1 -1,1 h -3 c -0.552,0 -1,-0.448 -1,-1 v -3 c 0,-0.552 -0.448,-1 -1,-1 h -1 c -1.1046,0 -2,-0.895 -2,-2 0,-1.105 0.8954,-2 2,-2 h 1 c 0.552,0 1,-0.448 1,-1 v -3 c 0,-0.552 0.448,-1 1,-1 h 3 c 0.552,0 1,-0.448 1,-1 z"
       stroke="#111827"
       stroke-width="2"
       stroke-linecap="round"
       stroke-linejoin="round"
       id="path394" />
    <path
       d="m 156,826 v 6 m 0,0 -3,-3 m 3,3 3,-3 m -12,4 v -10 c 0,-1.105 0.895,-2 2,-2 h 6 l 2,2 h 6 c 1.105,0 2,0.895 2,2 v 8 c 0,1.105 -0.895,2 -2,2 h -14 c -1.105,0 -2,-0.895 -2,-2 z"
       stroke="#111827"
       stroke-width="2"
       stroke-linecap="round"
       stroke-linejoin="round"
       id="path396" />
    <path
       d="m 201,829 h 6 m -3,-3 v 6 m -9,1 v -10 c 0,-1.105 0.895,-2 2,-2 h 6 l 2,2 h 6 c 1.105,0 2,0.895 2,2 v 8 c 0,1.105 -0.895,2 -2,2 h -14 c -1.105,0 -2,-0.895 -2,-2 z"
       stroke="#111827"
       stroke-width="2"
       stroke-linecap="round"
       stroke-linejoin="round"
       id="path398" />
    <path
       d="m 249,829 h 6 m -12,4 v -10 c 0,-1.105 0.895,-2 2,-2 h 6 l 2,2 h 6 c 1.105,0 2,0.895 2,2 v 8 c 0,1.105 -0.895,2 -2,2 h -14 c -1.105,0 -2,-0.895 -2,-2 z"
       stroke="#111827"
       stroke-width="2"
       stroke-linecap="round"
       stroke-linejoin="round"
       id="path400" />
    <path
       d="m 297,836 -5.447,-2.724 C 291.214,833.107 291,832.761 291,832.382 v -10.764 c 0,-0.743 0.782,-1.227 1.447,-0.894 L 297,823 m 0,13 6,-3 m -6,3 v -13 m 6,10 4.553,2.276 c 0.665,0.333 1.447,-0.151 1.447,-0.894 v -10.764 c 0,-0.379 -0.214,-0.725 -0.553,-0.894 L 303,820 m 0,13 v -13 m 0,0 -6,3"
       stroke="#111827"
       stroke-width="2"
       stroke-linecap="round"
       stroke-linejoin="round"
       id="path402" />
    <path
       d="m 346,822 h -5 c -1.105,0 -2,0.895 -2,2 v 9 c 0,1.105 0.895,2 2,2 h 14 c 1.105,0 2,-0.895 2,-2 v -9 c 0,-1.105 -0.895,-2 -2,-2 h -5 m -4,0 v -1 c 0,-1.105 0.895,-2 2,-2 1.105,0 2,0.895 2,2 v 1 m -4,0 c 0,1.105 0.895,2 2,2 1.105,0 2,-0.895 2,-2 m -5,8 c 1.105,0 2,-0.895 2,-2 0,-1.105 -0.895,-2 -2,-2 -1.105,0 -2,0.895 -2,2 0,1.105 0.895,2 2,2 z m 0,0 c 1.306,0 2.417,0.835 2.829,2 M 345,830 c -1.306,0 -2.418,0.835 -2.829,2 M 351,827 h 3 m -3,4 h 2"
       stroke="#111827"
       stroke-width="2"
       stroke-linecap="round"
       stroke-linejoin="round"
       id="path404" />
    <path
       d="m 390,821 c 7.18,0 13,5.82 13,13 m -13,-7 c 3.866,0 7,3.134 7,7 m -6,0 c 0,0.552 -0.448,1 -1,1 -0.552,0 -1,-0.448 -1,-1 0,-0.552 0.448,-1 1,-1 0.552,0 1,0.448 1,1 z"
       stroke="#111827"
       stroke-width="2"
       stroke-linecap="round"
       stroke-linejoin="round"
       id="path406" />
    <path
       d="M 446.121,830.121 451,835 m -7,-7 7,-7 m -7,7 -2.879,2.879 M 444,828 l -2.879,-2.879 m 0,5.758 C 440.578,830.336 439.828,830 439,830 c -1.657,0 -3,1.343 -3,3 0,1.657 1.343,3 3,3 1.657,0 3,-1.343 3,-3 0,-0.828 -0.336,-1.578 -0.879,-2.121 z m 0,-5.758 C 441.664,824.578 442,823.828 442,823 c 0,-1.657 -1.343,-3 -3,-3 -1.657,0 -3,1.343 -3,3 0,1.657 1.343,3 3,3 0.828,0 1.578,-0.336 2.121,-0.879 z"
       stroke="#111827"
       stroke-width="2"
       stroke-linecap="round"
       id="path408" />
    <path
       d="m 9,883 v -13 l 12,-3 v 13 m -12,3 c 0,1.105 -1.34315,2 -3,2 -1.65686,0 -3,-0.895 -3,-2 0,-1.105 1.34314,-2 3,-2 1.65685,0 3,0.895 3,2 z m 12,-3 c 0,1.105 -1.3431,2 -3,2 -1.6569,0 -3,-0.895 -3,-2 0,-1.105 1.3431,-2 3,-2 1.6569,0 3,0.895 3,2 z m -12,-6 12,-3"
       stroke="#111827"
       stroke-width="2"
       stroke-linecap="round"
       stroke-linejoin="round"
       id="path410" />
    <path
       d="m 55,868 v 16 m 10,-16 v 16 M 51,872 h 4 m 10,0 h 4 m -18,4 h 18 m -18,4 h 4 m 10,0 h 4 m -17,4 h 16 c 0.5523,0 1,-0.448 1,-1 v -14 c 0,-0.552 -0.4477,-1 -1,-1 H 52 c -0.5523,0 -1,0.448 -1,1 v 14 c 0,0.552 0.4477,1 1,1 z"
       stroke="#111827"
       stroke-width="2"
       id="path412" />
    <path
       d="m 100,871 v 10 c 0,2.209 3.582,4 8,4 4.418,0 8,-1.791 8,-4 v -10 m -16,0 c 0,2.209 3.582,4 8,4 4.418,0 8,-1.791 8,-4 m -16,0 c 0,-2.209 3.582,-4 8,-4 4.418,0 8,1.791 8,4 m 0,5 c 0,2.209 -3.582,4 -8,4 -4.418,0 -8,-1.791 -8,-4"
       stroke="#111827"
       stroke-width="2"
       id="path414" />
    <path
       d="m 149,876 h 14 m -14,0 c -1.105,0 -2,-0.895 -2,-2 v -4 c 0,-1.105 0.895,-2 2,-2 h 14 c 1.105,0 2,0.895 2,2 v 4 c 0,1.105 -0.895,2 -2,2 m -14,0 c -1.105,0 -2,0.895 -2,2 v 4 c 0,1.105 0.895,2 2,2 h 14 c 1.105,0 2,-0.895 2,-2 v -4 c 0,-1.105 -0.895,-2 -2,-2 m -2,-4 h 0.01 m -0.01,8 h 0.01"
       stroke="#111827"
       stroke-width="2"
       stroke-linecap="round"
       stroke-linejoin="round"
       id="path416" />
    <path
       d="m 209,880 4,-4 m 0,0 -4,-4 m 4,4 h -14 m 6,4 v 1 c 0,1.657 -1.343,3 -3,3 h -4 c -1.657,0 -3,-1.343 -3,-3 v -10 c 0,-1.657 1.343,-3 3,-3 h 4 c 1.657,0 3,1.343 3,3 v 1"
       stroke="#111827"
       stroke-width="2"
       stroke-linecap="round"
       stroke-linejoin="round"
       id="path418" />
    <path
       d="m 248.111,880.404 c 2.148,-2.148 5.63,-2.148 7.778,0 M 252,884 h 0.01 m -7.081,-7.071 c 3.905,-3.905 10.237,-3.905 14.142,0 m -17.677,-3.536 c 5.857,-5.857 15.355,-5.857 21.213,0"
       stroke="#111827"
       stroke-width="2"
       stroke-linecap="round"
       id="path420" />
    <path
       d="m 300,878 2,-2 m 0,0 2,-2 m -2,2 -2,-2 m 2,2 2,2 m -13,-2 6.414,6.414 c 0.375,0.375 0.884,0.586 1.414,0.586 H 307 c 1.105,0 2,-0.895 2,-2 v -10 c 0,-1.105 -0.895,-2 -2,-2 h -8.172 c -0.53,0 -1.039,0.211 -1.414,0.586 z"
       stroke="#111827"
       stroke-width="2"
       stroke-linecap="round"
       stroke-linejoin="round"
       id="path422" />
    <path
       d="m 348,883 9,2 -9,-18 -9,18 z m 0,0 v -8"
       stroke="#111827"
       stroke-width="2"
       stroke-linecap="round"
       stroke-linejoin="round"
       id="path424" />
    <path
       d="m 396,882 h 0.01 m -4.01,3 h 8 c 1.105,0 2,-0.895 2,-2 v -14 c 0,-1.105 -0.895,-2 -2,-2 h -8 c -1.105,0 -2,0.895 -2,2 v 14 c 0,1.105 0.895,2 2,2 z"
       stroke="#111827"
       stroke-width="2"
       stroke-linecap="round"
       stroke-linejoin="round"
       id="path426" />
    <path
       d="m 444,882 h 0.01 m -5.01,3 h 10 c 1.105,0 2,-0.895 2,-2 v -14 c 0,-1.105 -0.895,-2 -2,-2 h -10 c -1.105,0 -2,0.895 -2,2 v 14 c 0,1.105 0.895,2 2,2 z"
       stroke="#111827"
       stroke-width="2"
       stroke-linecap="round"
       stroke-linejoin="round"
       id="path428" />
    <path
       d="m 13,917 7,7 -7,7 m -8,-14 7,7 -7,7"
       stroke="#111827"
       stroke-width="2"
       stroke-linecap="round"
       stroke-linejoin="round"
       id="path430" />
    <path
       d="m 67,925 -7,7 -7,-7 m 14,-8 -7,7 -7,-7"
       stroke="#111827"
       stroke-width="2"
       stroke-linecap="round"
       stroke-linejoin="round"
       id="path432" />
    <path
       d="m 107,931 -7,-7 7,-7 m 8,14 -7,-7 7,-7"
       stroke="#111827"
       stroke-width="2"
       stroke-linecap="round"
       stroke-linejoin="round"
       id="path434" />
    <path
       d="m 149,923 7,-7 7,7 m -14,8 7,-7 7,7"
       stroke="#111827"
       stroke-width="2"
       stroke-linecap="round"
       stroke-linejoin="round"
       id="path436" />
    <path
       d="m 204,923 c 0,3.517 -1.009,6.799 -2.753,9.571 m -3.44,-2.041 c 0.018,-0.029 0.036,-0.059 0.054,-0.089 1.355,-2.153 2.139,-4.699 2.139,-7.441 0,-2.209 1.791,-4 4,-4 2.209,0 4,1.791 4,4 0,1.017 -0.069,2.019 -0.203,3 m -2.118,6.844 c 0.612,-1.221 1.113,-2.507 1.492,-3.844 m 3.839,1.132 c 0.645,-2.266 0.99,-4.659 0.99,-7.132 0,-4.418 -3.582,-8 -8,-8 -1.457,0 -2.823,0.39 -4,1.07 m -5,11.294 c 0.641,-1.319 1,-2.799 1,-4.364 0,-1.457 0.39,-2.823 1.07,-4"
       stroke="#111827"
       stroke-width="2"
       stroke-linecap="round"
       stroke-linejoin="round"
       id="path438" />
    <path
       d="m 260,919 -8,-4 -8,4 m 16,0 -8,4 m 8,-4 v 10 l -8,4 m 0,-10 -8,-4 m 8,4 v 10 m -8,-14 v 10 l 8,4"
       stroke="#111827"
       stroke-width="2"
       stroke-linejoin="round"
       id="path440" />
    <path
       d="m 293,931 c -1.105,0 -2,-0.895 -2,-2 v -10 c 0,-1.105 0.895,-2 2,-2 h 4 l 2,2 h 4 c 1.105,0 2,0.895 2,2 v 1 m -12,9 h 14 c 1.105,0 2,-0.895 2,-2 v -5 c 0,-1.105 -0.895,-2 -2,-2 h -10 c -1.105,0 -2,0.895 -2,2 v 5 c 0,1.105 -0.895,2 -2,2 z"
       stroke="#111827"
       stroke-width="2"
       stroke-linecap="round"
       id="path442" />
    <path
       d="m 344,919 h -3 c -1.105,0 -2,0.895 -2,2 v 9 c 0,1.105 0.895,2 2,2 h 14 c 1.105,0 2,-0.895 2,-2 v -9 c 0,-1.105 -0.895,-2 -2,-2 h -3 m -1,4 -3,3 m 0,0 -3,-3 m 3,3 v -10"
       stroke="#111827"
       stroke-width="2"
       stroke-linecap="round"
       stroke-linejoin="round"
       id="path444" />
    <path
       d="m 401,928 v 2 c 0,1.105 -0.895,2 -2,2 h -10 c -1.105,0 -2,-0.895 -2,-2 v -7 c 0,-1.105 0.895,-2 2,-2 h 2 m 3,-4 h -1 c -1.105,0 -2,0.895 -2,2 v 7 c 0,1.105 0.895,2 2,2 h 10 c 1.105,0 2,-0.895 2,-2 v -7 c 0,-1.105 -0.895,-2 -2,-2 h -1 m -1,4 -3,3 m 0,0 -3,-3 m 3,3 v -9"
       stroke="#111827"
       stroke-width="2"
       stroke-linecap="round"
       stroke-linejoin="round"
       id="path446" />
    <path
       d="m 441,924 h 6 m -6,4 h 6 m 2,5 h -10 c -1.105,0 -2,-0.895 -2,-2 v -14 c 0,-1.105 0.895,-2 2,-2 h 5.586 c 0.265,0 0.519,0.105 0.707,0.293 l 5.414,5.414 c 0.188,0.188 0.293,0.442 0.293,0.707 V 931 c 0,1.105 -0.895,2 -2,2 z"
       stroke="#111827"
       stroke-width="2"
       stroke-linecap="round"
       stroke-linejoin="round"
       id="path448" />
    <path
       d="m 3,970 h 18 m -18,4 h 18 m -9,-4 v 8 m -7,0 h 14 c 1.1046,0 2,-0.895 2,-2 v -8 c 0,-1.105 -0.8954,-2 -2,-2 H 5 c -1.10457,0 -2,0.895 -2,2 v 8 c 0,1.105 0.89543,2 2,2 z"
       stroke="#111827"
       stroke-width="2"
       id="path450" />
    <path
       d="m 57,967 h 6 m 0,10 v -3 m -3,3 h 0.01 M 57,977 h 0.01 M 57,974 h 0.01 m 2.99,0 h 0.01 M 63,971 h 0.01 M 60,971 h 0.01 M 57,971 h 0.01 M 55,981 h 10 c 1.1046,0 2,-0.895 2,-2 v -14 c 0,-1.105 -0.8954,-2 -2,-2 H 55 c -1.1046,0 -2,0.895 -2,2 v 14 c 0,1.105 0.8954,2 2,2 z"
       stroke="#111827"
       stroke-width="2"
       stroke-linecap="round"
       stroke-linejoin="round"
       id="path452" />
    <path
       d="m 115.428,975.428 c -0.279,-0.279 -0.635,-0.469 -1.022,-0.547 l -2.388,-0.477 c -1.308,-0.262 -2.666,-0.08 -3.86,0.517 l -0.317,0.158 c -1.193,0.597 -2.552,0.779 -3.86,0.517 l -1.932,-0.386 c -0.655,-0.131 -1.333,0.074 -1.806,0.547 M 104,964 h 8 l -1,1 v 5.172 c 0,0.53 0.211,1.039 0.586,1.414 l 5,5 c 1.26,1.26 0.367,3.414 -1.415,3.414 h -14.343 c -1.7816,0 -2.6739,-2.154 -1.414,-3.414 l 5,-5 c 0.375,-0.375 0.586,-0.884 0.586,-1.414 V 965 Z"
       stroke="#111827"
       stroke-width="2"
       stroke-linecap="round"
       stroke-linejoin="round"
       id="path454" />
    <path
       d="m 156,968 v 13 m 0,-13 c 0,0 0,-1.493 0,-2 0,-1.105 0.895,-2 2,-2 1.105,0 2,0.895 2,2 0,1.105 -0.895,2 -2,2 -0.597,0 -2,0 -2,0 z m 0,0 c 0,0 0,-1.937 0,-2.5 0,-1.381 -1.119,-2.5 -2.5,-2.5 -1.381,0 -2.5,1.119 -2.5,2.5 0,1.381 1.119,2.5 2.5,2.5 0.818,0 2.5,0 2.5,0 z m -7,4 h 14 m -14,0 c -1.105,0 -2,-0.895 -2,-2 0,-1.105 0.895,-2 2,-2 h 14 c 1.105,0 2,0.895 2,2 0,1.105 -0.895,2 -2,2 m -14,0 v 7 c 0,1.105 0.895,2 2,2 h 10 c 1.105,0 2,-0.895 2,-2 v -7"
       stroke="#111827"
       stroke-width="2"
       stroke-linecap="round"
       stroke-linejoin="round"
       id="path456" />
    <path
       d="m 205,976 v -10 c 0,-0.552 -0.448,-1 -1,-1 h -8 c -0.552,0 -1,0.448 -1,1 v 10 c 0,0.552 0.448,1 1,1 h 1 m 8,-1 c 0,0.552 -0.448,1 -1,1 h -3 m 4,-1 v -8 c 0,-0.552 0.448,-1 1,-1 h 2.586 c 0.265,0 0.519,0.105 0.707,0.293 l 3.414,3.414 c 0.188,0.188 0.293,0.442 0.293,0.707 V 976 c 0,0.552 -0.448,1 -1,1 h -1 m -6,-1 c 0,0.552 0.448,1 1,1 h 1 m -10,0 c 0,1.105 0.895,2 2,2 1.105,0 2,-0.895 2,-2 m -4,0 c 0,-1.105 0.895,-2 2,-2 1.105,0 2,0.895 2,2 m 6,0 c 0,1.105 0.895,2 2,2 1.105,0 2,-0.895 2,-2 m -4,0 c 0,-1.105 0.895,-2 2,-2 1.105,0 2,0.895 2,2"
       stroke="#111827"
       stroke-width="2"
       id="path458" />
    <path
       d="m 251,971 v -2 c 0,-1.105 -0.895,-2 -2,-2 m 2,4 v 4 c 0,1.105 0.895,2 2,2 1.105,0 2,-0.895 2,-2 v -1 m -4,-3 h -2 m 2,0 h 4 m 6,1 c 0,4.971 -4.029,9 -9,9 -4.971,0 -9,-4.029 -9,-9 0,-4.971 4.029,-9 9,-9 4.971,0 9,4.029 9,9 z"
       stroke="#111827"
       stroke-width="2"
       stroke-linecap="round"
       stroke-linejoin="round"
       id="path460" />
    <path
       d="m 303,970 4.553,-2.276 c 0.665,-0.333 1.447,0.151 1.447,0.894 v 6.764 c 0,0.743 -0.782,1.227 -1.447,0.894 L 303,974 m -10,4 h 8 c 1.105,0 2,-0.895 2,-2 v -8 c 0,-1.105 -0.895,-2 -2,-2 h -8 c -1.105,0 -2,0.895 -2,2 v 8 c 0,1.105 0.895,2 2,2 z"
       stroke="#111827"
       stroke-width="2"
       stroke-linecap="round"
       stroke-linejoin="round"
       id="path462" />
    <path
       d="m 339,975 c 0,2.209 1.791,4 4,4 h 9 c 2.761,0 5,-2.239 5,-5 0,-2.761 -2.239,-5 -5,-5 -0.033,0 -0.067,0 -0.1,10e-4 -0.463,-2.283 -2.481,-4.001 -4.9,-4.001 -2.761,0 -5,2.239 -5,5 0,0.377 0.042,0.744 0.121,1.097 C 340.335,971.498 339,973.093 339,975 Z"
       stroke="#111827"
       stroke-width="2"
       stroke-linecap="round"
       stroke-linejoin="round"
       id="path464" />
    <path
       d="m 391,976 c -2.209,0 -4,-1.791 -4,-4 0,-1.907 1.335,-3.502 3.121,-3.903 C 390.042,967.744 390,967.377 390,967 c 0,-2.761 2.239,-5 5,-5 2.419,0 4.437,1.718 4.9,4.001 C 399.933,966 399.967,966 400,966 c 2.761,0 5,2.239 5,5 0,2.419 -1.718,4.437 -4,4.9 m -2,-2.9 -3,-3 m 0,0 -3,3 m 3,-3 v 12"
       stroke="#111827"
       stroke-width="2"
       stroke-linecap="round"
       stroke-linejoin="round"
       id="path466" />
    <path
       d="m 439,976 c -2.209,0 -4,-1.791 -4,-4 0,-1.907 1.335,-3.502 3.121,-3.903 C 438.042,967.744 438,967.377 438,967 c 0,-2.761 2.239,-5 5,-5 2.419,0 4.437,1.718 4.9,4.001 C 447.933,966 447.967,966 448,966 c 2.761,0 5,2.239 5,5 0,2.419 -1.718,4.437 -4,4.9 m -8,3.1 3,3 m 0,0 3,-3 m -3,3 v -12"
       stroke="#111827"
       stroke-width="2"
       stroke-linecap="round"
       stroke-linejoin="round"
       id="path468" />
    <path
       d="m 16,1016 2,-2 m 0,0 2,-2 m -2,2 -2,-2 m 2,2 2,2 m -15,-5 c -1.10457,0 -2,0.9 -2,2 v 1 c 0,8.28 6.71573,15 15,15 h 1 c 1.1046,0 2,-0.9 2,-2 v -3.28 c 0,-0.43 -0.2754,-0.81 -0.6838,-0.95 l -4.4934,-1.5 c -0.4721,-0.15 -0.9881,0.06 -1.2107,0.51 l -1.1286,2.25 c -2.4447,-1.1 -4.41425,-3.07 -5.51649,-5.51 l 2.25729,-1.13 c 0.4451,-0.22 0.6588,-0.74 0.5014,-1.21 l -1.49778,-4.5 C 9.09181,1011.28 8.70967,1011 8.27924,1011 Z"
       stroke="#111827"
       stroke-width="2"
       stroke-linecap="round"
       stroke-linejoin="round"
       id="path470" />
    <path
       d="m 60,1014 v 6 m 0,0 v 6 m 0,-6 h 6 m -6,0 h -6"
       stroke="#111827"
       stroke-width="2"
       stroke-linecap="round"
       stroke-linejoin="round"
       id="path472" />
    <path
       d="M 114,1020 H 102"
       stroke="#111827"
       stroke-width="2"
       stroke-linecap="round"
       stroke-linejoin="round"
       id="path474" />
    <path
       d="m 153,1022 6,-6 m -5.5,0.5 h 0.01 m 4.99,5 h 0.01 m 4.49,7.5 v -16 c 0,-1.1 -0.895,-2 -2,-2 h -10 c -1.105,0 -2,0.9 -2,2 v 16 l 3.5,-2 3.5,2 3.5,-2 z m -9,-12.5 c 0,0.28 -0.224,0.5 -0.5,0.5 -0.276,0 -0.5,-0.22 -0.5,-0.5 0,-0.28 0.224,-0.5 0.5,-0.5 0.276,0 0.5,0.22 0.5,0.5 z m 5,5 c 0,0.28 -0.224,0.5 -0.5,0.5 -0.276,0 -0.5,-0.22 -0.5,-0.5 0,-0.28 0.224,-0.5 0.5,-0.5 0.276,0 0.5,0.22 0.5,0.5 z"
       stroke="#111827"
       stroke-width="2"
       stroke-linecap="round"
       stroke-linejoin="round"
       id="path476" />
    <path
       d="m 197.636,1026.36 c -3.515,-3.51 -3.515,-9.21 0,-12.72 m 12.728,0 c 3.515,3.51 3.515,9.21 0,12.72 m -9.9,-2.82 c -1.952,-1.96 -1.952,-5.12 0,-7.08 m 7.072,0 c 1.952,1.96 1.952,5.12 0,7.08 M 205,1020 c 0,0.55 -0.448,1 -1,1 -0.552,0 -1,-0.45 -1,-1 0,-0.55 0.448,-1 1,-1 0.552,0 1,0.45 1,1 z"
       stroke="#111827"
       stroke-width="2"
       stroke-linecap="round"
       stroke-linejoin="round"
       id="path478" />
    <path
       d="m 259.071,1012.93 c -0.39,-0.39 -1.024,-0.39 -1.414,0 -0.391,0.39 -0.391,1.02 0,1.41 z m -0.707,13.43 -0.707,0.71 v 0 z m -2.121,-10.6 c -0.391,-0.39 -1.024,-0.39 -1.415,0 -0.39,0.39 -0.39,1.02 0,1.41 z m -0.707,7.78 -0.708,0.7 v 0 z m -7.779,0.7 c 0.391,0.39 1.024,0.39 1.415,0 0.39,-0.39 0.39,-1.02 0,-1.41 z m 0.283,-3.67 c -0.078,-0.55 -0.584,-0.93 -1.131,-0.85 -0.546,0.07 -0.927,0.58 -0.849,1.13 z m -3.111,6.5 c 0.39,0.39 1.024,0.39 1.414,0 0.391,-0.39 0.391,-1.02 0,-1.41 z m -0.512,-9.63 c 0.176,-0.52 -0.106,-1.09 -0.629,-1.26 -0.524,-0.18 -1.091,0.1 -1.267,0.63 z m -0.71,-7.15 c -0.39,-0.39 -1.024,-0.39 -1.414,0 -0.391,0.39 -0.391,1.03 0,1.42 z m 16.586,19.42 c 0.39,0.39 1.024,0.39 1.414,0 0.391,-0.39 0.391,-1.03 0,-1.42 z m -2.636,-15.37 c 3.124,3.13 3.124,8.19 0,11.32 l 1.414,1.41 c 3.905,-3.9 3.905,-10.24 0,-14.14 z m -2.829,2.83 c 1.563,1.56 1.563,4.1 0,5.66 l 1.415,1.41 c 2.343,-2.34 2.343,-6.14 0,-8.48 z M 252,1020 h 2 c 0,-1.1 -0.895,-2 -2,-2 z m -2.828,2.83 c -0.638,-0.64 -1.014,-1.44 -1.132,-2.26 l -1.98,0.28 c 0.176,1.24 0.743,2.44 1.697,3.39 z m -2.829,2.83 c -2.22,-2.22 -2.864,-5.42 -1.926,-8.22 l -1.896,-0.63 c -1.17,3.48 -0.369,7.48 2.408,10.26 z M 252,1020 v 0 -2 c -0.552,0 -1.053,0.22 -1.414,0.59 z m -9.707,-8.29 8.293,8.29 1.414,-1.41 -8.293,-8.3 z m 8.293,8.29 1.414,1.41 1.414,-1.41 -1.414,-1.41 z m 1.414,1.41 2.828,2.83 1.415,-1.41 -2.829,-2.83 z m 2.828,2.83 2.829,2.83 1.414,-1.41 -2.828,-2.83 z m 2.829,2.83 2.636,2.64 1.414,-1.42 -2.636,-2.63 z M 252,1020 v 0 l 1.414,1.41 c 0.361,-0.36 0.586,-0.86 0.586,-1.41 z"
       fill="#111827"
       id="path480" />
    <path
       d="m 292,1012 v -1 h -1 v 1 z m 16,0 h 1 v -1 h -1 z m -13.707,7.29 c -0.391,0.39 -0.391,1.03 0,1.42 0.39,0.39 1.024,0.39 1.414,0 z M 298,1017 l 0.707,-0.71 c -0.39,-0.39 -1.024,-0.39 -1.414,0 z m 3,3 -0.707,0.71 c 0.39,0.39 1.024,0.39 1.414,0 z m 4.707,-3.29 c 0.391,-0.39 0.391,-1.03 0,-1.42 -0.39,-0.39 -1.024,-0.39 -1.414,0 z m -10.414,11.58 c -0.391,0.39 -0.391,1.03 0,1.42 0.39,0.39 1.024,0.39 1.414,0 z M 300,1025 l 0.707,-0.71 c -0.39,-0.39 -1.024,-0.39 -1.414,0 z m 3.293,4.71 c 0.39,0.39 1.024,0.39 1.414,0 0.391,-0.39 0.391,-1.03 0,-1.42 z M 291,1011 c -0.552,0 -1,0.45 -1,1 0,0.55 0.448,1 1,1 z m 18,2 c 0.552,0 1,-0.45 1,-1 0,-0.55 -0.448,-1 -1,-1 z m -17,0 h 16 v -2 h -16 z m 15,-1 v 12 h 2 v -12 z m 0,12 h -14 v 2 h 14 z m -14,0 v -12 h -2 v 12 z m 0,0 h -2 c 0,1.1 0.895,2 2,2 z m 14,0 v 2 c 1.105,0 2,-0.9 2,-2 z m -11.293,-3.29 3,-3 -1.414,-1.42 -3,3 z m 1.586,-3 3,3 1.414,-1.42 -3,-3 z m 4.414,3 4,-4 -1.414,-1.42 -4,4 z m -5,9 4,-4 -1.414,-1.42 -4,4 z m 2.586,-4 4,4 1.414,-1.42 -4,-4 z M 291,1013 h 18 v -2 h -18 z"
       fill="#111827"
       id="path482" />
    <path
       d="m 344,1021 v -1 m 4,1 v -3 m 4,3 v -5 m -8,13 4,-4 4,4 m -13,-17 h 18 m -17,0 h 16 v 12 c 0,0.55 -0.448,1 -1,1 h -14 c -0.552,0 -1,-0.45 -1,-1 z"
       stroke="#111827"
       stroke-width="2"
       stroke-linecap="round"
       stroke-linejoin="round"
       id="path484" />
    <path
       d="m 395.933,1020.8 c 0.534,-0.4 0.534,-1.2 0,-1.6 l -5.333,-4 c -0.659,-0.49 -1.6,-0.02 -1.6,0.8 v 8 c 0,0.82 0.941,1.29 1.6,0.8 z"
       stroke="#111827"
       stroke-width="2"
       stroke-linecap="round"
       stroke-linejoin="round"
       id="path486" />
    <path
       d="m 403.933,1020.8 c 0.534,-0.4 0.534,-1.2 0,-1.6 l -5.333,-4 c -0.659,-0.49 -1.6,-0.02 -1.6,0.8 v 8 c 0,0.82 0.941,1.29 1.6,0.8 z"
       stroke="#111827"
       stroke-width="2"
       stroke-linecap="round"
       stroke-linejoin="round"
       id="path488" />
    <path
       d="m 444.067,1019.2 c -0.534,0.4 -0.534,1.2 0,1.6 l 5.333,4 c 0.659,0.49 1.6,0.02 1.6,-0.8 v -8 c 0,-0.82 -0.941,-1.29 -1.6,-0.8 z"
       stroke="#111827"
       stroke-width="2"
       stroke-linecap="round"
       stroke-linejoin="round"
       id="path490" />
    <path
       d="m 436.067,1019.2 c -0.534,0.4 -0.534,1.2 0,1.6 l 5.333,4 c 0.659,0.49 1.6,0.02 1.6,-0.8 v -8 c 0,-0.82 -0.941,-1.29 -1.6,-0.8 z"
       stroke="#111827"
       stroke-width="2"
       stroke-linecap="round"
       stroke-linejoin="round"
       id="path492" />
    <path
       d="m 9,1059 v 2 m 6,-2 v 2 m -6,14 v 2 m 6,-2 v 2 M 5,1065 H 3 m 2,6 H 3 m 18,-6 h -2 m 2,6 h -2 m -12,4 h 10 c 1.1046,0 2,-0.9 2,-2 v -10 c 0,-1.1 -0.8954,-2 -2,-2 H 7 c -1.10457,0 -2,0.9 -2,2 v 10 c 0,1.1 0.89543,2 2,2 z m 2,-10 h 6 v 6 H 9 Z"
       stroke="#111827"
       stroke-width="2"
       stroke-linecap="round"
       stroke-linejoin="round"
       id="path494" />
    <path
       d="m 60,1070 9,-5 -9,-5 -9,5 z m 0,0 6.1591,-3.42 c 0.5426,1.37 0.8409,2.86 0.8409,4.42 0,0.7 -0.0602,1.39 -0.1756,2.06 -2.6101,0.25 -4.9754,1.34 -6.8244,3 -1.849,-1.66 -4.2143,-2.75 -6.8244,-3 C 53.0602,1072.39 53,1071.7 53,1071 c 0,-1.56 0.2982,-3.05 0.8409,-4.42 z m -4,6 v -7.5 l 4,-2.22"
       stroke="#111827"
       stroke-width="2"
       stroke-linecap="round"
       stroke-linejoin="round"
       id="path496" />
    <path
       d="m 100.871,1060 c -1.1976,2.41 -1.871,5.13 -1.871,8 0,2.87 0.6734,5.59 1.871,8 m 14.129,0 c 1.198,-2.41 1.871,-5.13 1.871,-8 0,-2.87 -0.673,-5.59 -1.871,-8 m -10,5 h 1.246 c 0.446,0 0.839,0.3 0.961,0.73 l 1.586,5.54 c 0.122,0.43 0.515,0.73 0.961,0.73 H 111 m 1,-7 h -0.08 c -0.584,0 -1.139,0.26 -1.519,0.7 l -4.802,5.6 c -0.38,0.44 -0.935,0.7 -1.519,0.7 H 104"
       stroke="#111827"
       stroke-width="2"
       stroke-linecap="round"
       id="path498" />
    <path
       d="m 154,1077 h 7 c 1.105,0 2,-0.9 2,-2 v -9.59 c 0,-0.26 -0.105,-0.52 -0.293,-0.7 l -5.414,-5.42 c -0.188,-0.18 -0.442,-0.29 -0.707,-0.29 H 151 c -1.105,0 -2,0.9 -2,2 v 11 m 0,5 4.879,-4.88 m 0,0 c 0.543,0.54 1.293,0.88 2.121,0.88 1.657,0 3,-1.34 3,-3 0,-1.66 -1.343,-3 -3,-3 -1.657,0 -3,1.34 -3,3 0,0.83 0.336,1.58 0.879,2.12 z"
       stroke="#111827"
       stroke-width="2"
       stroke-linecap="round"
       id="path500" />
    <path
       d="m 200,1072 2.879,-2.88 m 0,0 c 0.543,0.54 1.293,0.88 2.121,0.88 1.657,0 3,-1.34 3,-3 0,-1.66 -1.343,-3 -3,-3 -1.657,0 -3,1.34 -3,3 0,0.83 0.336,1.58 0.879,2.12 z M 213,1068 c 0,4.97 -4.029,9 -9,9 -4.971,0 -9,-4.03 -9,-9 0,-4.97 4.029,-9 9,-9 4.971,0 9,4.03 9,9 z"
       stroke="#111827"
       stroke-width="2"
       stroke-linecap="round"
       id="path502" />
    <path
       d="m 254,1066 -2,1 m 0,0 -2,-1 m 2,1 v 2.5 m 8,-6.5 -2,1 m 2,-1 -2,-1 m 2,1 v 2.5 m -6,-5.5 -2,-1 -2,1 m -6,3 2,-1 m -2,1 2,1 m -2,-1 v 2.5 m 8,11.5 -2,-1 m 2,1 2,-1 m -2,1 v -2.5 m -6,-0.5 -2,-1 v -2.5 m 14,3.5 2,-1 v -2.5"
       stroke="#111827"
       stroke-width="2"
       stroke-linecap="round"
       stroke-linejoin="round"
       id="path504" />
    <path
       d="m 309,1071.55 c -0.523,0 -1.046,0.15 -1.5,0.45 -0.908,0.61 -2.092,0.61 -3,0 -0.908,-0.61 -2.092,-0.61 -3,0 -0.908,0.61 -2.092,0.61 -3,0 -0.908,-0.61 -2.092,-0.61 -3,0 -0.908,0.61 -2.092,0.61 -3,0 -0.454,-0.3 -0.977,-0.45 -1.5,-0.45 m 6,-9.55 v 2 m 3,-2 v 2 m 3,-2 v 2 m -6,-5 h 0.01 m 2.99,0 h 0.01 m 2.99,0 h 0.01 m 5.99,18 v -7 c 0,-1.1 -0.895,-2 -2,-2 h -14 c -1.105,0 -2,0.9 -2,2 v 7 z m -3,-9 v -2 c 0,-1.1 -0.895,-2 -2,-2 h -8 c -1.105,0 -2,0.9 -2,2 v 2 z"
       stroke="#111827"
       stroke-width="2"
       stroke-linecap="round"
       stroke-linejoin="round"
       id="path506" />
  </g>
  <defs
     id="defs1322">
    <clipPath
       id="clip0_756_23769">
      <rect
         width="456"
         height="1080"
         fill="#ffffff"
         id="rect1304"
         x="0"
         y="0" />
    </clipPath>
    <clipPath
       id="clip1_756_23769">
      <rect
         width="24"
         height="24"
         fill="#ffffff"
         transform="translate(0,768)"
         id="rect1307"
         x="0"
         y="0" />
    </clipPath>
  </defs>
</svg>
